<svg width="116" height="116" viewBox="0 0 116 116" fill="none" xmlns="http://www.w3.org/2000/svg">
<path d="M57.9999 0C25.9689 0 0 25.9678 0 57.9999C0 90.0319 25.9689 116 57.9999 116C90.0343 116 116 90.0319 116 57.9999C116 25.9678 90.0332 0 57.9999 0ZM47.3603 87.7933L21.8218 62.2558L30.3339 53.7437L47.3603 70.769L85.6658 32.4624L94.178 40.9745L47.3603 87.7933Z" fill="#FF5722"/>
<path d="M57.9999 0C25.9689 0 0 25.9678 0 57.9999C0 90.0319 25.9689 116 57.9999 116C90.0343 116 116 90.0319 116 57.9999C116 25.9678 90.0332 0 57.9999 0ZM47.3603 87.7933L21.8218 62.2558L30.3339 53.7437L47.3603 70.769L85.6658 32.4624L94.178 40.9745L47.3603 87.7933Z" fill="url(#paint0_linear)"/>
<defs>
<linearGradient id="paint0_linear" x1="57.9999" y1="0" x2="57.9999" y2="116" gradientUnits="userSpaceOnUse">
<stop stop-color="#FF5722"/>
<stop offset="1" stop-color="#424242"/>
</linearGradient>
</defs>
</svg>
