<svg width="445" height="208" viewBox="0 0 445 208" fill="none" xmlns="http://www.w3.org/2000/svg">
<path d="M22.4408 187.626L43.3845 124.849L82.2531 159.304L22.4408 187.626Z" fill="#C4C4C4"/>
<path d="M22.4408 187.626L43.3845 124.849L82.2531 159.304L22.4408 187.626Z" fill="url(#paint0_linear)"/>
<path d="M48 121.842L151.257 6.99999L188.438 40.4301L85.1811 155.272L48 121.842Z" fill="#0A8947"/>
<path d="M48 121.842L151.257 6.99999L188.438 40.4301L85.1811 155.272L48 121.842Z" fill="url(#paint1_linear)"/>
<path d="M81.5 168L26.5 191H391H395L81.5 168Z" fill="#CA772B"/>
<path d="M81.5 168L26.5 191H391H395L81.5 168Z" fill="url(#paint2_linear)"/>
<path d="M170.964 116.404C170.964 115.574 170.671 114.939 170.085 114.5C169.499 114.051 168.444 113.582 166.921 113.094C165.397 112.596 164.191 112.107 163.303 111.629C160.881 110.32 159.67 108.558 159.67 106.341C159.67 105.188 159.992 104.163 160.637 103.265C161.291 102.356 162.224 101.648 163.435 101.141C164.655 100.633 166.022 100.379 167.536 100.379C169.06 100.379 170.417 100.657 171.608 101.214C172.8 101.761 173.723 102.537 174.377 103.543C175.041 104.549 175.373 105.691 175.373 106.971H170.979C170.979 105.994 170.671 105.237 170.056 104.7C169.44 104.153 168.576 103.88 167.463 103.88C166.389 103.88 165.554 104.109 164.958 104.568C164.362 105.018 164.064 105.613 164.064 106.355C164.064 107.049 164.411 107.63 165.104 108.099C165.808 108.567 166.838 109.007 168.195 109.417C170.695 110.169 172.517 111.102 173.659 112.215C174.802 113.328 175.373 114.715 175.373 116.375C175.373 118.221 174.675 119.671 173.278 120.726C171.882 121.771 170.002 122.293 167.639 122.293C165.998 122.293 164.504 121.995 163.156 121.399C161.809 120.794 160.778 119.969 160.065 118.924C159.362 117.879 159.011 116.668 159.011 115.291H163.42C163.42 117.645 164.826 118.821 167.639 118.821C168.684 118.821 169.499 118.611 170.085 118.191C170.671 117.762 170.964 117.166 170.964 116.404ZM185.378 122.293C183.054 122.293 181.159 121.58 179.694 120.154C178.239 118.729 177.512 116.829 177.512 114.456V114.046C177.512 112.454 177.819 111.033 178.435 109.783C179.05 108.523 179.919 107.557 181.042 106.883C182.175 106.199 183.464 105.857 184.909 105.857C187.077 105.857 188.781 106.541 190.021 107.908C191.271 109.275 191.896 111.214 191.896 113.724V115.452H181.804C181.94 116.487 182.351 117.317 183.034 117.942C183.728 118.567 184.602 118.88 185.656 118.88C187.287 118.88 188.562 118.289 189.479 117.107L191.56 119.437C190.925 120.335 190.065 121.038 188.981 121.546C187.897 122.044 186.696 122.293 185.378 122.293ZM184.895 109.285C184.055 109.285 183.371 109.568 182.844 110.135C182.326 110.701 181.994 111.512 181.848 112.566H187.736V112.229C187.717 111.292 187.463 110.569 186.975 110.062C186.486 109.544 185.793 109.285 184.895 109.285ZM200.905 118.88C201.687 118.88 202.321 118.665 202.81 118.235C203.298 117.806 203.552 117.234 203.571 116.521H207.541C207.531 117.596 207.238 118.582 206.662 119.48C206.086 120.369 205.295 121.062 204.289 121.561C203.293 122.049 202.189 122.293 200.979 122.293C198.713 122.293 196.926 121.575 195.617 120.14C194.309 118.694 193.654 116.702 193.654 114.163V113.885C193.654 111.443 194.304 109.495 195.603 108.04C196.901 106.585 198.684 105.857 200.949 105.857C202.932 105.857 204.519 106.424 205.71 107.557C206.911 108.68 207.521 110.179 207.541 112.054H203.571C203.552 111.233 203.298 110.569 202.81 110.062C202.321 109.544 201.677 109.285 200.876 109.285C199.89 109.285 199.143 109.646 198.635 110.369C198.137 111.082 197.888 112.244 197.888 113.855V114.295C197.888 115.926 198.137 117.098 198.635 117.811C199.133 118.523 199.89 118.88 200.905 118.88ZM209.299 113.929C209.299 112.356 209.602 110.955 210.207 109.725C210.812 108.494 211.682 107.542 212.814 106.868C213.957 106.194 215.28 105.857 216.784 105.857C218.923 105.857 220.666 106.512 222.014 107.82C223.371 109.129 224.128 110.906 224.284 113.152L224.313 114.236C224.313 116.668 223.635 118.621 222.277 120.096C220.92 121.561 219.099 122.293 216.813 122.293C214.528 122.293 212.702 121.561 211.335 120.096C209.978 118.631 209.299 116.639 209.299 114.119V113.929ZM213.532 114.236C213.532 115.74 213.815 116.893 214.382 117.693C214.948 118.484 215.759 118.88 216.813 118.88C217.839 118.88 218.64 118.489 219.216 117.708C219.792 116.917 220.08 115.657 220.08 113.929C220.08 112.454 219.792 111.312 219.216 110.501C218.64 109.69 217.829 109.285 216.784 109.285C215.749 109.285 214.948 109.69 214.382 110.501C213.815 111.302 213.532 112.547 213.532 114.236ZM230.817 106.15L230.949 107.981C232.082 106.565 233.601 105.857 235.505 105.857C237.185 105.857 238.435 106.351 239.255 107.337C240.075 108.323 240.495 109.798 240.515 111.761V122H236.281V111.863C236.281 110.965 236.086 110.315 235.695 109.915C235.305 109.505 234.655 109.3 233.747 109.3C232.556 109.3 231.662 109.808 231.066 110.823V122H226.833V106.15H230.817ZM243.078 113.958C243.078 111.487 243.63 109.52 244.733 108.055C245.847 106.59 247.365 105.857 249.289 105.857C250.832 105.857 252.106 106.434 253.112 107.586V99.5H257.36V122H253.537L253.332 120.315C252.277 121.634 250.92 122.293 249.26 122.293C247.395 122.293 245.896 121.561 244.763 120.096C243.64 118.621 243.078 116.575 243.078 113.958ZM247.312 114.266C247.312 115.75 247.57 116.888 248.088 117.679C248.605 118.47 249.357 118.865 250.344 118.865C251.652 118.865 252.575 118.313 253.112 117.21V110.955C252.585 109.852 251.672 109.3 250.373 109.3C248.332 109.3 247.312 110.955 247.312 114.266ZM285.134 114.896C284.968 117.19 284.118 118.997 282.585 120.315C281.062 121.634 279.05 122.293 276.55 122.293C273.815 122.293 271.662 121.375 270.09 119.539C268.527 117.693 267.746 115.164 267.746 111.951V110.647C267.746 108.597 268.107 106.79 268.83 105.228C269.553 103.665 270.583 102.469 271.921 101.639C273.269 100.799 274.831 100.379 276.608 100.379C279.069 100.379 281.052 101.038 282.556 102.356C284.06 103.675 284.929 105.525 285.163 107.908H280.769C280.661 106.531 280.275 105.535 279.611 104.92C278.957 104.295 277.956 103.982 276.608 103.982C275.144 103.982 274.045 104.51 273.312 105.564C272.59 106.609 272.219 108.235 272.199 110.442V112.054C272.199 114.358 272.546 116.043 273.239 117.107C273.942 118.172 275.046 118.704 276.55 118.704C277.907 118.704 278.918 118.396 279.582 117.781C280.256 117.156 280.642 116.194 280.739 114.896H285.134ZM291.872 107.879C292.995 106.531 294.406 105.857 296.105 105.857C299.543 105.857 301.286 107.854 301.335 111.849V122H297.102V111.966C297.102 111.058 296.906 110.389 296.516 109.959C296.125 109.52 295.476 109.3 294.567 109.3C293.327 109.3 292.429 109.778 291.872 110.735V122H287.639V99.5H291.872V107.879ZM313.713 122C313.518 121.619 313.376 121.146 313.288 120.579C312.263 121.722 310.93 122.293 309.289 122.293C307.736 122.293 306.447 121.844 305.422 120.945C304.406 120.047 303.898 118.914 303.898 117.547C303.898 115.867 304.519 114.578 305.759 113.68C307.009 112.781 308.811 112.327 311.164 112.317H313.112V111.409C313.112 110.677 312.922 110.091 312.541 109.651C312.17 109.212 311.579 108.992 310.769 108.992C310.056 108.992 309.494 109.163 309.084 109.505C308.684 109.847 308.483 110.315 308.483 110.911H304.25C304.25 109.993 304.533 109.144 305.1 108.362C305.666 107.581 306.467 106.971 307.502 106.531C308.537 106.082 309.699 105.857 310.988 105.857C312.941 105.857 314.489 106.351 315.632 107.337C316.784 108.313 317.36 109.69 317.36 111.468V118.338C317.37 119.842 317.58 120.979 317.99 121.751V122H313.713ZM310.212 119.056C310.837 119.056 311.413 118.919 311.94 118.646C312.468 118.362 312.858 117.986 313.112 117.518V114.793H311.53C309.411 114.793 308.283 115.525 308.146 116.99L308.132 117.239C308.132 117.767 308.317 118.201 308.688 118.543C309.06 118.885 309.567 119.056 310.212 119.056ZM324.509 106.15L324.641 107.981C325.773 106.565 327.292 105.857 329.196 105.857C330.876 105.857 332.126 106.351 332.946 107.337C333.767 108.323 334.187 109.798 334.206 111.761V122H329.973V111.863C329.973 110.965 329.777 110.315 329.387 109.915C328.996 109.505 328.347 109.3 327.438 109.3C326.247 109.3 325.354 109.808 324.758 110.823V122H320.524V106.15H324.509ZM344.021 118.88C344.802 118.88 345.437 118.665 345.925 118.235C346.413 117.806 346.667 117.234 346.687 116.521H350.656C350.646 117.596 350.354 118.582 349.777 119.48C349.201 120.369 348.41 121.062 347.404 121.561C346.408 122.049 345.305 122.293 344.094 122.293C341.828 122.293 340.041 121.575 338.732 120.14C337.424 118.694 336.77 116.702 336.77 114.163V113.885C336.77 111.443 337.419 109.495 338.718 108.04C340.017 106.585 341.799 105.857 344.064 105.857C346.047 105.857 347.634 106.424 348.825 107.557C350.026 108.68 350.637 110.179 350.656 112.054H346.687C346.667 111.233 346.413 110.569 345.925 110.062C345.437 109.544 344.792 109.285 343.991 109.285C343.005 109.285 342.258 109.646 341.75 110.369C341.252 111.082 341.003 112.244 341.003 113.855V114.295C341.003 115.926 341.252 117.098 341.75 117.811C342.248 118.523 343.005 118.88 344.021 118.88ZM360.368 122.293C358.044 122.293 356.149 121.58 354.685 120.154C353.229 118.729 352.502 116.829 352.502 114.456V114.046C352.502 112.454 352.81 111.033 353.425 109.783C354.04 108.523 354.909 107.557 356.032 106.883C357.165 106.199 358.454 105.857 359.899 105.857C362.067 105.857 363.771 106.541 365.012 107.908C366.262 109.275 366.887 111.214 366.887 113.724V115.452H356.794C356.931 116.487 357.341 117.317 358.024 117.942C358.718 118.567 359.592 118.88 360.646 118.88C362.277 118.88 363.552 118.289 364.47 117.107L366.55 119.437C365.915 120.335 365.056 121.038 363.972 121.546C362.888 122.044 361.687 122.293 360.368 122.293ZM359.885 109.285C359.045 109.285 358.361 109.568 357.834 110.135C357.316 110.701 356.984 111.512 356.838 112.566H362.727V112.229C362.707 111.292 362.453 110.569 361.965 110.062C361.477 109.544 360.783 109.285 359.885 109.285Z" fill="#1F1E1E"/>
<path d="M117.973 138.672L124.125 155.02L130.263 138.672H135.053V160H131.361V152.969L131.728 143.564L125.429 160H122.777L116.493 143.579L116.859 152.969V160H113.168V138.672H117.973ZM148.573 160C148.417 159.697 148.28 159.204 148.163 158.521C147.03 159.702 145.644 160.293 144.003 160.293C142.411 160.293 141.112 159.839 140.106 158.931C139.101 158.022 138.598 156.899 138.598 155.562C138.598 153.872 139.223 152.578 140.473 151.68C141.732 150.771 143.529 150.317 145.863 150.317H148.046V149.277C148.046 148.457 147.816 147.803 147.357 147.314C146.898 146.816 146.2 146.567 145.263 146.567C144.452 146.567 143.788 146.772 143.271 147.183C142.753 147.583 142.494 148.096 142.494 148.721H138.935C138.935 147.852 139.223 147.041 139.799 146.289C140.375 145.527 141.156 144.932 142.143 144.502C143.139 144.072 144.247 143.857 145.468 143.857C147.323 143.857 148.803 144.326 149.906 145.264C151.01 146.191 151.576 147.5 151.605 149.189V156.338C151.605 157.764 151.806 158.901 152.206 159.751V160H148.573ZM144.662 157.437C145.365 157.437 146.024 157.266 146.64 156.924C147.265 156.582 147.733 156.123 148.046 155.547V152.559H146.127C144.809 152.559 143.817 152.788 143.153 153.247C142.489 153.706 142.157 154.355 142.157 155.195C142.157 155.879 142.382 156.426 142.831 156.836C143.29 157.236 143.9 157.437 144.662 157.437ZM159.794 140.298V144.15H162.592V146.787H159.794V155.635C159.794 156.24 159.911 156.68 160.146 156.953C160.39 157.217 160.819 157.349 161.435 157.349C161.845 157.349 162.26 157.3 162.68 157.202V159.956C161.869 160.181 161.088 160.293 160.336 160.293C157.602 160.293 156.234 158.784 156.234 155.767V146.787H153.627V144.15H156.234V140.298H159.794ZM173.622 147.402C173.153 147.324 172.67 147.285 172.172 147.285C170.541 147.285 169.442 147.91 168.876 149.16V160H165.316V144.15H168.715L168.803 145.923C169.662 144.546 170.854 143.857 172.377 143.857C172.885 143.857 173.305 143.926 173.637 144.062L173.622 147.402ZM179.657 160H176.098V144.15H179.657V160ZM175.878 140.034C175.878 139.487 176.049 139.033 176.391 138.672C176.742 138.311 177.24 138.13 177.885 138.13C178.529 138.13 179.027 138.311 179.379 138.672C179.73 139.033 179.906 139.487 179.906 140.034C179.906 140.571 179.73 141.021 179.379 141.382C179.027 141.733 178.529 141.909 177.885 141.909C177.24 141.909 176.742 141.733 176.391 141.382C176.049 141.021 175.878 140.571 175.878 140.034ZM190.058 157.451C190.946 157.451 191.684 157.192 192.27 156.675C192.855 156.157 193.168 155.518 193.207 154.756H196.562C196.522 155.742 196.215 156.665 195.639 157.524C195.062 158.374 194.281 159.048 193.295 159.546C192.309 160.044 191.244 160.293 190.102 160.293C187.885 160.293 186.127 159.575 184.828 158.14C183.529 156.704 182.88 154.722 182.88 152.192V151.826C182.88 149.414 183.524 147.485 184.813 146.04C186.103 144.585 187.86 143.857 190.087 143.857C191.972 143.857 193.505 144.409 194.687 145.513C195.878 146.606 196.503 148.047 196.562 149.834H193.207C193.168 148.926 192.855 148.179 192.27 147.593C191.693 147.007 190.956 146.714 190.058 146.714C188.905 146.714 188.017 147.134 187.392 147.974C186.767 148.804 186.449 150.068 186.439 151.768V152.339C186.439 154.058 186.747 155.342 187.362 156.191C187.987 157.031 188.886 157.451 190.058 157.451ZM218.212 154.507C218.212 153.569 217.88 152.847 217.216 152.339C216.562 151.831 215.375 151.318 213.656 150.801C211.938 150.283 210.57 149.707 209.555 149.072C207.611 147.852 206.64 146.26 206.64 144.297C206.64 142.578 207.338 141.162 208.734 140.049C210.141 138.936 211.962 138.379 214.198 138.379C215.683 138.379 217.006 138.652 218.168 139.199C219.33 139.746 220.243 140.527 220.907 141.543C221.571 142.549 221.903 143.667 221.903 144.897H218.212C218.212 143.784 217.86 142.915 217.157 142.29C216.464 141.655 215.468 141.338 214.169 141.338C212.958 141.338 212.016 141.597 211.342 142.114C210.678 142.632 210.346 143.354 210.346 144.282C210.346 145.063 210.707 145.718 211.43 146.245C212.152 146.763 213.344 147.271 215.004 147.769C216.664 148.257 217.997 148.818 219.003 149.453C220.009 150.078 220.746 150.801 221.215 151.621C221.684 152.432 221.918 153.384 221.918 154.478C221.918 156.255 221.234 157.671 219.867 158.726C218.51 159.771 216.664 160.293 214.33 160.293C212.787 160.293 211.366 160.01 210.067 159.443C208.778 158.867 207.772 158.076 207.05 157.07C206.337 156.064 205.98 154.893 205.98 153.555H209.687C209.687 154.766 210.087 155.703 210.888 156.367C211.688 157.031 212.836 157.363 214.33 157.363C215.619 157.363 216.586 157.104 217.23 156.587C217.885 156.06 218.212 155.366 218.212 154.507ZM234.428 158.447C233.383 159.678 231.898 160.293 229.975 160.293C228.256 160.293 226.952 159.79 226.063 158.784C225.185 157.778 224.745 156.323 224.745 154.419V144.15H228.305V154.375C228.305 156.387 229.14 157.393 230.81 157.393C232.538 157.393 233.705 156.772 234.311 155.532V144.15H237.87V160H234.516L234.428 158.447ZM255.375 152.236C255.375 154.688 254.818 156.646 253.705 158.11C252.592 159.565 251.098 160.293 249.223 160.293C247.484 160.293 246.093 159.722 245.048 158.579V166.094H241.488V144.15H244.77L244.916 145.762C245.961 144.492 247.382 143.857 249.179 143.857C251.112 143.857 252.626 144.58 253.72 146.025C254.823 147.461 255.375 149.458 255.375 152.017V152.236ZM251.83 151.929C251.83 150.347 251.513 149.092 250.878 148.164C250.253 147.236 249.354 146.772 248.183 146.772C246.728 146.772 245.683 147.373 245.048 148.574V155.605C245.692 156.836 246.747 157.451 248.212 157.451C249.345 157.451 250.229 156.997 250.863 156.089C251.508 155.171 251.83 153.784 251.83 151.929ZM272.279 152.236C272.279 154.688 271.723 156.646 270.609 158.11C269.496 159.565 268.002 160.293 266.127 160.293C264.389 160.293 262.997 159.722 261.952 158.579V166.094H258.393V144.15H261.674L261.82 145.762C262.865 144.492 264.286 143.857 266.083 143.857C268.017 143.857 269.53 144.58 270.624 146.025C271.728 147.461 272.279 149.458 272.279 152.017V152.236ZM268.734 151.929C268.734 150.347 268.417 149.092 267.782 148.164C267.157 147.236 266.259 146.772 265.087 146.772C263.632 146.772 262.587 147.373 261.952 148.574V155.605C262.597 156.836 263.651 157.451 265.116 157.451C266.249 157.451 267.133 156.997 267.768 156.089C268.412 155.171 268.734 153.784 268.734 151.929ZM274.638 151.929C274.638 150.376 274.945 148.979 275.561 147.739C276.176 146.489 277.04 145.532 278.153 144.868C279.267 144.194 280.546 143.857 281.991 143.857C284.13 143.857 285.863 144.546 287.191 145.923C288.529 147.3 289.252 149.126 289.359 151.401L289.374 152.236C289.374 153.799 289.071 155.195 288.466 156.426C287.87 157.656 287.011 158.608 285.888 159.282C284.774 159.956 283.485 160.293 282.021 160.293C279.784 160.293 277.992 159.551 276.645 158.066C275.307 156.572 274.638 154.585 274.638 152.104V151.929ZM278.197 152.236C278.197 153.867 278.534 155.146 279.208 156.074C279.882 156.992 280.819 157.451 282.021 157.451C283.222 157.451 284.154 156.982 284.818 156.045C285.492 155.107 285.829 153.735 285.829 151.929C285.829 150.327 285.482 149.058 284.789 148.12C284.105 147.183 283.173 146.714 281.991 146.714C280.829 146.714 279.906 147.178 279.223 148.105C278.539 149.023 278.197 150.4 278.197 152.236ZM300.683 147.402C300.214 147.324 299.73 147.285 299.232 147.285C297.602 147.285 296.503 147.91 295.937 149.16V160H292.377V144.15H295.775L295.863 145.923C296.723 144.546 297.914 143.857 299.438 143.857C299.945 143.857 300.365 143.926 300.697 144.062L300.683 147.402ZM308.124 140.298V144.15H310.922V146.787H308.124V155.635C308.124 156.24 308.241 156.68 308.476 156.953C308.72 157.217 309.149 157.349 309.765 157.349C310.175 157.349 310.59 157.3 311.01 157.202V159.956C310.199 160.181 309.418 160.293 308.666 160.293C305.932 160.293 304.564 158.784 304.564 155.767V146.787H301.957V144.15H304.564V140.298H308.124ZM325.175 152.075V160H321.469V138.672H329.628C332.011 138.672 333.9 139.292 335.297 140.532C336.703 141.772 337.406 143.413 337.406 145.454C337.406 147.544 336.718 149.17 335.341 150.332C333.974 151.494 332.055 152.075 329.584 152.075H325.175ZM325.175 149.102H329.628C330.946 149.102 331.952 148.794 332.646 148.179C333.339 147.554 333.686 146.655 333.686 145.483C333.686 144.331 333.334 143.413 332.631 142.729C331.928 142.036 330.961 141.68 329.73 141.66H325.175V149.102ZM348.612 147.402C348.144 147.324 347.66 147.285 347.162 147.285C345.531 147.285 344.433 147.91 343.866 149.16V160H340.307V144.15H343.705L343.793 145.923C344.652 144.546 345.844 143.857 347.367 143.857C347.875 143.857 348.295 143.926 348.627 144.062L348.612 147.402ZM349.667 151.929C349.667 150.376 349.975 148.979 350.59 147.739C351.205 146.489 352.069 145.532 353.183 144.868C354.296 144.194 355.575 143.857 357.021 143.857C359.159 143.857 360.893 144.546 362.221 145.923C363.559 147.3 364.281 149.126 364.389 151.401L364.403 152.236C364.403 153.799 364.101 155.195 363.495 156.426C362.899 157.656 362.04 158.608 360.917 159.282C359.804 159.956 358.515 160.293 357.05 160.293C354.813 160.293 353.021 159.551 351.674 158.066C350.336 156.572 349.667 154.585 349.667 152.104V151.929ZM353.227 152.236C353.227 153.867 353.563 155.146 354.237 156.074C354.911 156.992 355.849 157.451 357.05 157.451C358.251 157.451 359.184 156.982 359.848 156.045C360.521 155.107 360.858 153.735 360.858 151.929C360.858 150.327 360.512 149.058 359.818 148.12C359.135 147.183 358.202 146.714 357.021 146.714C355.858 146.714 354.936 147.178 354.252 148.105C353.568 149.023 353.227 150.4 353.227 152.236ZM366.791 151.958C366.791 149.497 367.367 147.534 368.52 146.069C369.682 144.595 371.22 143.857 373.134 143.857C374.94 143.857 376.361 144.487 377.396 145.747L377.558 144.15H380.766V159.517C380.766 161.597 380.116 163.237 378.817 164.438C377.528 165.64 375.785 166.24 373.588 166.24C372.426 166.24 371.288 165.996 370.175 165.508C369.071 165.029 368.231 164.399 367.655 163.618L369.34 161.479C370.434 162.778 371.781 163.428 373.383 163.428C374.564 163.428 375.497 163.105 376.181 162.461C376.864 161.826 377.206 160.889 377.206 159.648V158.579C376.181 159.722 374.813 160.293 373.104 160.293C371.249 160.293 369.73 159.556 368.549 158.081C367.377 156.606 366.791 154.565 366.791 151.958ZM370.336 152.266C370.336 153.857 370.658 155.112 371.303 156.03C371.957 156.938 372.86 157.393 374.013 157.393C375.448 157.393 376.513 156.777 377.206 155.547V148.574C376.532 147.373 375.478 146.772 374.042 146.772C372.87 146.772 371.957 147.236 371.303 148.164C370.658 149.092 370.336 150.459 370.336 152.266ZM392.733 147.402C392.265 147.324 391.781 147.285 391.283 147.285C389.652 147.285 388.554 147.91 387.987 149.16V160H384.428V144.15H387.826L387.914 145.923C388.773 144.546 389.965 143.857 391.488 143.857C391.996 143.857 392.416 143.926 392.748 144.062L392.733 147.402ZM398.329 144.15L398.432 145.806C399.545 144.507 401.068 143.857 403.002 143.857C405.121 143.857 406.571 144.668 407.353 146.289C408.505 144.668 410.126 143.857 412.216 143.857C413.964 143.857 415.263 144.341 416.112 145.308C416.972 146.274 417.411 147.7 417.431 149.585V160H413.871V149.688C413.871 148.682 413.651 147.944 413.212 147.476C412.772 147.007 412.045 146.772 411.029 146.772C410.219 146.772 409.555 146.992 409.037 147.432C408.529 147.861 408.173 148.428 407.968 149.131L407.982 160H404.423V149.57C404.374 147.705 403.422 146.772 401.566 146.772C400.141 146.772 399.13 147.354 398.534 148.516V160H394.975V144.15H398.329ZM428.065 160.293C425.81 160.293 423.979 159.585 422.572 158.169C421.176 156.743 420.478 154.849 420.478 152.485V152.046C420.478 150.464 420.78 149.053 421.386 147.812C422.001 146.562 422.86 145.591 423.964 144.897C425.067 144.204 426.298 143.857 427.655 143.857C429.813 143.857 431.479 144.546 432.65 145.923C433.832 147.3 434.423 149.248 434.423 151.768V153.203H424.066C424.174 154.512 424.608 155.547 425.37 156.309C426.142 157.07 427.108 157.451 428.271 157.451C429.901 157.451 431.229 156.792 432.255 155.474L434.174 157.305C433.539 158.252 432.689 158.989 431.625 159.517C430.57 160.034 429.384 160.293 428.065 160.293ZM427.641 146.714C426.664 146.714 425.873 147.056 425.268 147.739C424.672 148.423 424.291 149.375 424.125 150.596H430.907V150.332C430.829 149.141 430.512 148.242 429.955 147.637C429.398 147.021 428.627 146.714 427.641 146.714Z" fill="#9D403E"/>
<g filter="url(#filter0_d)">
<path d="M94.8241 120.361C93.3023 122.026 91.5444 122.9 89.5505 122.983C87.5559 123.052 85.6864 122.289 83.9419 120.695L83.6175 120.399C82.4497 119.331 81.6122 118.156 81.1052 116.872C80.5975 115.575 80.46 114.285 80.6927 113.003C80.9253 111.72 81.4995 110.578 82.4152 109.576C83.8712 107.983 85.5026 107.218 87.3096 107.282C89.1232 107.339 90.9599 108.217 92.8198 109.917L93.8794 110.885L86.8928 118.53C87.9312 119.333 88.9885 119.711 90.0647 119.663C91.1474 119.607 92.0808 119.15 92.8647 118.292C93.9649 117.089 94.3743 115.664 94.0929 114.017L96.7391 113.836C97.0101 114.944 96.9812 116.068 96.6524 117.21C96.3229 118.337 95.7135 119.388 94.8241 120.361ZM84.5139 111.514C83.8551 112.235 83.5737 113.049 83.6699 113.957C83.7726 114.858 84.2185 115.782 85.0076 116.728L89.583 111.721L89.3884 111.543C88.4562 110.797 87.5789 110.426 86.7565 110.428C85.9268 110.424 85.1793 110.786 84.5139 111.514ZM99.7951 103.174L94.607 108.851L92.4877 106.914L97.6758 101.238L99.7951 103.174ZM109.023 90.2757L103.114 96.7419L107.958 101.169L114.866 93.6108L117.05 95.6069L107.642 105.901L91.8985 91.5126L101.237 81.2943L103.443 83.3103L96.6046 90.7929L100.951 94.7655L106.861 88.2993L109.023 90.2757ZM114.842 82.2583L113.029 76.5128L115.697 73.5933L118.189 82.4396L127.505 84.1668L124.857 87.0646L118.722 85.7439L120.598 91.7251L117.93 94.6446L115.373 85.5213L106.348 83.8224L108.997 80.9245L114.842 82.2583ZM135.421 75.5055C135.092 75.4166 134.636 75.1849 134.052 74.8102C134.16 76.4436 133.661 77.8658 132.554 79.0768C131.48 80.2518 130.269 80.9043 128.92 81.0341C127.571 81.1639 126.402 80.7775 125.415 79.8749C124.168 78.7352 123.634 77.4009 123.814 75.8721C123.994 74.3295 124.871 72.6968 126.445 70.9739L127.918 69.3627L127.15 68.6611C126.544 68.1077 125.907 67.8357 125.236 67.8451C124.559 67.848 123.904 68.1954 123.272 68.8874C122.725 69.4857 122.428 70.1143 122.382 70.773C122.328 71.4252 122.532 71.9621 122.994 72.3837L120.592 75.0113C119.951 74.425 119.547 73.6655 119.38 72.7329C119.207 71.7937 119.294 70.8152 119.642 69.7972C119.997 68.7721 120.586 67.8089 121.41 66.9078C122.662 65.5382 124.006 64.7623 125.442 64.5802C126.871 64.3915 128.219 64.8562 129.486 65.9743L134.763 70.7967C135.816 71.7586 136.79 72.3783 137.688 72.6559L137.872 72.8239L135.421 75.5055ZM130.89 76.6632C131.364 76.1442 131.683 75.5423 131.846 74.8576C132.015 74.1657 131.992 73.51 131.778 72.8906L129.572 70.8747L128.277 72.2912C127.388 73.2644 126.889 74.1509 126.78 74.9507C126.67 75.7505 126.926 76.4337 127.546 77.0003C128.05 77.4615 128.606 77.6646 129.211 77.6097C129.817 77.541 130.376 77.2255 130.89 76.6632ZM130.54 57.3521L131.831 58.3931C131.623 56.6951 132.171 55.1325 133.476 53.7051C134.905 52.1409 136.482 51.6172 138.206 52.1341C137.787 50.1899 138.282 48.4464 139.692 46.9037C140.871 45.6134 142.104 44.9807 143.391 45.0058C144.684 45.0237 146.033 45.6611 147.438 46.9182L155.126 53.9443L152.724 56.5719L145.112 49.6149C144.369 48.9364 143.677 48.6012 143.034 48.6093C142.392 48.6175 141.728 48.9964 141.043 49.7461C140.496 50.3445 140.21 50.9829 140.186 51.6614C140.16 52.3261 140.338 52.9713 140.719 53.5971L148.752 60.9187L146.35 63.5463L138.651 56.5103C137.242 55.288 135.911 55.3617 134.659 56.7313C133.697 57.7838 133.444 58.9219 133.9 60.1456L142.378 67.8932L139.976 70.5207L128.277 59.8283L130.54 57.3521Z" fill="white"/>
</g>
<defs>
<filter id="filter0_d" x="76.583" y="45.0051" width="82.5426" height="85.9821" filterUnits="userSpaceOnUse" color-interpolation-filters="sRGB">
<feFlood flood-opacity="0" result="BackgroundImageFix"/>
<feColorMatrix in="SourceAlpha" type="matrix" values="0 0 0 0 0 0 0 0 0 0 0 0 0 0 0 0 0 0 127 0"/>
<feOffset dy="4"/>
<feGaussianBlur stdDeviation="2"/>
<feColorMatrix type="matrix" values="0 0 0 0 0 0 0 0 0 0 0 0 0 0 0 0 0 0 0.15 0"/>
<feBlend mode="normal" in2="BackgroundImageFix" result="effect1_dropShadow"/>
<feBlend mode="normal" in="SourceGraphic" in2="effect1_dropShadow" result="shape"/>
</filter>
<linearGradient id="paint0_linear" x1="22.4408" y1="187.626" x2="76.2782" y2="126.893" gradientUnits="userSpaceOnUse">
<stop stop-color="#962222"/>
<stop offset="1" stop-color="#932020"/>
</linearGradient>
<linearGradient id="paint1_linear" x1="99.6283" y1="64.4212" x2="136.809" y2="97.8512" gradientUnits="userSpaceOnUse">
<stop stop-color="white" stop-opacity="0.26"/>
<stop offset="1" stop-color="white" stop-opacity="0"/>
</linearGradient>
<linearGradient id="paint2_linear" x1="210.75" y1="168" x2="210.75" y2="191" gradientUnits="userSpaceOnUse">
<stop stop-color="white" stop-opacity="0.13"/>
<stop offset="1" stop-color="white" stop-opacity="0"/>
</linearGradient>
</defs>
</svg>
