<?xml version="1.0"?>
<svg xmlns="http://www.w3.org/2000/svg" height="512px" viewBox="0 0 60 60" width="512px"><g><g id="002---GMO-Food"><path id="Shape" d="m22 58.38c8.83 5.62 21.56-4.38 22-20.11.8749203.3564058 1.8799053.0519913 2.41-.73l1.11-1.67c.2948441-.4437128.4004764-.9867223.2934712-1.5086074s-.4178038-.9795113-.8634712-1.2713926l12.69-19.09c.2222453-.3242971.3439835-.7069029.35-1.1v-10.9c-.0024239-.87895168-.5784188-1.65330655-1.4195422-1.90840135-.8411234-.25509481-1.7502138.06886534-2.2404578.79840135-1.33 2.05 5.45-8.18-16.2 24.35-4.52-5.6-11.59-5.51-17.11-.56.32-9.24 3.89-9.67 4-9.68.5522847 0 1-.4477153 1-1s-.4477153-1-1-1c-1.3144649.1275828-2.5082267.8212059-3.27 1.9-1.39-5.4-7.36-9.12-11.89-7.83-.667454.18880836-1.1755618.73155983-1.32 1.41-1.22 5.64 5 12.22 11 11.46-.3199916 1.5743886-.5006898 3.1739026-.54 4.78-6.15-5.55-13.49-4.67-17.68 1.2-2.95 4.18-4.02 10.41-2.84 16.68 2.39 12.73 13.09 21.13 21.52 15.78zm-9.54-49.38c4.54-1.22 10.37 4.25 9.45 8.86-4.54 1.19-10.37-4.27-9.45-8.86zm22.71 30.71 2.71-5.42 3.12 2.07-4 4.64c-.06-.14.58.32-1.83-1.29zm9.55-3.28c-.1 0 1 .65-8.35-5.55l1.11-1.67 8.35 5.55zm13.28-34.43v10.9l-12.73 19.1-5-3.33 1.1-1.67 1.63 1.09c.2212469.1478952.4923195.2015002.7532053.1489477s.4900631-.2069274.6367947-.4289477c.3012473-.4588827.176275-1.0748175-.28-1.38l-1.67-1.11 1.11-1.68 1.67 1.11c.2212469.1478952.4923195.2015002.7532053.1489477s.4900631-.2069274.6367947-.4289477c.3012473-.4588827.176275-1.0748175-.28-1.38l-1.63-1.09 1.11-1.68 1.67 1.11c.2212469.1478952.4923195.2015002.7532053.1489477s.4900631-.2069274.6367947-.4289477c.3012473-.4588827.176275-1.0748175-.28-1.38l-1.67-1.11 1.08-1.66 1.68 1.12c.4607382.2926417 1.0710241.1617756 1.371266-.2940463.300242-.4558219.1795143-1.0681941-.271266-1.3759537l-1.64-1.15 1.11-1.67 1.68 1.11c.4545099.214429.9975579.0582276 1.2686764-.3649199s.1860765-.9817779-.1986764-1.3050801l-1.64-1.07zm-53 25.08c3.6-5.08 9.7-5.51 14.85-.74 1.2317551 1.0851537 3.0782449 1.0851537 4.31 0 4.89-4.53 11-4.57 14.79.68l-.35.54c-.4412751-.2967445-.9825597-.4055362-1.50422-.30233s-.9807421.4099121-1.27578.85233l-1.11 1.67c-.2967445.4412751-.4055362.9825597-.30233 1.50422s.4099121.9807421.85233 1.27578l.94.62-2.82 5.65c-.4518554.9026618-.1602293 2.0005483.68 2.56.15.1.64-.74-4.89 7.58-.1478952.2212469-.2015002.4923195-.1489477.7532053s.2069274.4900631.4289477.6367947c.4588827.3012473 1.0748175.176275 1.38-.28l5-7.52.1.07c.8414299.5629281 1.9707966.408338 2.63-.36l3.42-4c-.41 14-11.6 23.78-19.39 18.07-.3514198-.2567957-.8285802-.2567957-1.18 0-1.0954549.8115758-2.3723773 1.3436269-3.72 1.55-6.6 1-13.44-6-15.25-15.67-1.08-5.73-.13-11.4 2.56-15.14z" data-original="#000000" class="active-path" data-old_color="#000000" fill="#FFFFFF"/><path id="Shape" d="m6 42c.31257407.0091729.61144303-.1284007.80774664-.3718172s.267438-.564647.19225336-.8681828c-1.79-7.18 1.21-9.86 1.36-10 .42802065-.3507008.49070077-.9819793.13999996-1.41-.3507008-.4280206-.98197928-.4907008-1.40999996-.14-.17.14-4.16 3.5-2 12 .09278711.4370561.46424332.7595291.91.79z" data-original="#000000" class="active-path" data-old_color="#000000" fill="#FFFFFF"/><circle id="Oval" cx="9.69" cy="27" r="1" data-original="#000000" class="active-path" data-old_color="#000000" fill="#FFFFFF"/></g></g> </svg>
