<?xml version="1.0" encoding="iso-8859-1"?>
<!-- Generator: Adobe Illustrator 22.1.0, SVG Export Plug-In . SVG Version: 6.00 Build 0)  -->
<svg xmlns="http://www.w3.org/2000/svg" xmlns:xlink="http://www.w3.org/1999/xlink" version="1.1" id="Layer_1_1_" x="0px" y="0px" viewBox="0 0 64 64" style="enable-background:new 0 0 64 64;" xml:space="preserve" width="512" height="512">
<g>
	<path style="fill:#F0BC5E;" d="M54,58h-3V35h7v19C58,56.209,56.209,58,54,58z"/>
	<path style="fill:#F0BC5E;" d="M47,19h-4v0c0-3.314,2.686-6,6-6h4v0C53,16.314,50.314,19,47,19z"/>
	<path style="fill:#F0BC5E;" d="M17.265,5.771c-0.041-0.113-0.088-0.224-0.148-0.344c-0.37-0.739-1.006-1.291-1.79-1.553   c-0.787-0.263-1.625-0.201-2.364,0.168l-0.25,0.125c-0.739,0.37-1.291,1.006-1.553,1.79c-0.262,0.785-0.202,1.625,0.17,2.368   c0.062,0.121,0.131,0.24,0.206,0.351l3.994,5.879l4.106-2.264L17.265,5.771z"/>
	<path style="fill:#F0BC5E;" d="M22.095,1h-0.189C20.304,1,19,2.304,19,3.905c0,0.1,0.005,0.197,0.015,0.289l0.799,7.993h4.373   l0.798-7.985C24.995,4.103,25,4.005,25,3.905C25,2.304,23.696,1,22.095,1z"/>
	<path style="fill:#F0BC5E;" d="M32.841,5.958c-0.262-0.784-0.813-1.42-1.553-1.79l-0.25-0.125   c-0.739-0.369-1.577-0.431-2.364-0.168c-0.784,0.262-1.42,0.813-1.796,1.565c-0.055,0.107-0.102,0.218-0.143,0.331l-2.371,6.521   l4.106,2.264l3.994-5.878c0.075-0.111,0.145-0.23,0.208-0.355C33.043,7.583,33.103,6.743,32.841,5.958z"/>
	<g>
		<rect x="53" y="37" width="2" height="2"/>
	</g>
	<g>
		<rect x="53" y="45" width="2" height="2"/>
	</g>
	<g>
		<rect x="53" y="53" width="2" height="2"/>
	</g>
	<g>
		<path d="M15,59C9.486,59,5,54.514,5,49h2c0,4.411,3.589,8,8,8V59z"/>
	</g>
	<g>
		<rect x="25" y="17" width="2" height="2"/>
	</g>
	<g>
		<path d="M61,29h-6.171c-0.516-2.361-1.63-4.545-3.261-6.357c-2.165-2.405-5.573-3.196-8.568-2.041V15c0-2.206,1.794-4,4-4V9    c-3.309,0-6,2.691-6,6v5.601c-2.997-1.158-6.405-0.365-8.568,2.041c-0.257,0.286-0.498,0.583-0.729,0.887l0.087-0.417    C31.929,22.443,32,21.756,32,21c0-5.514-4.486-10-10-10s-10,4.486-10,10.072c0,0.684,0.071,1.371,0.211,2.04L13.438,29H12    c-1.103,0-2,0.897-2,2v4h2v-4h2.09C14.035,31.326,14,31.659,14,32v9.796c-0.993-0.37-1.936-1.149-2.294-1.505l-1.413,1.416    C10.527,41.942,12.653,44,15,44s4.473-2.058,4.707-2.293l-1.413-1.416c-0.358,0.355-1.301,1.134-2.294,1.505v-1.883    c0.479-0.077,0.943-0.202,1.372-0.386c2.229-0.956,4.925-0.356,6.553,1.453c2.115,2.351,3.203,5.393,3.063,8.565    c-0.273,6.179-5.33,11.207-11.511,11.446c-3.318,0.119-6.424-1.06-8.797-3.343C4.308,55.364,3,52.293,3,49    c0-2.943,1.076-5.772,3.029-7.969c1.105-1.242,2.611-2.033,4.029-2.117l-0.117-1.996c-1.965,0.115-3.936,1.129-5.406,2.784    C2.256,42.265,1,45.567,1,49c0,3.842,1.525,7.425,4.294,10.09c2.634,2.534,6.06,3.911,9.7,3.911c0.187,0,0.373-0.004,0.561-0.011    c3.559-0.137,6.796-1.64,9.203-3.989H54c2.757,0,5-2.243,5-5V35h2c1.103,0,2-0.897,2-2v-2C63,29.897,62.103,29,61,29z     M33.918,23.98c1.629-1.81,4.324-2.407,6.554-1.453c0.17,0.073,0.348,0.134,0.528,0.191v2.125    c-1.048-0.342-2.074-1.178-2.45-1.552l-1.413,1.416C37.371,24.942,39.497,27,41.844,27s4.473-2.058,4.707-2.293l-1.413-1.416    c-0.339,0.336-1.204,1.047-2.138,1.436v-2.01c0.18-0.057,0.358-0.118,0.528-0.191c2.23-0.954,4.927-0.355,6.554,1.453    c1.298,1.443,2.211,3.161,2.689,5.02H31.229C31.707,27.142,32.62,25.423,33.918,23.98z M22,13c4.411,0,8,3.589,8,8.072    c0,0.547-0.057,1.096-0.168,1.632L28.52,29H17.382c0.703-0.615,1.612-1,2.618-1v-2c-1.89,0-3.576,0.88-4.677,2.25l-1.156-5.546    C14.057,22.168,14,21.619,14,21C14,16.589,17.589,13,22,13z M28.984,49c0-2.102-0.449-4.143-1.332-6H57v6H28.984z M54,57H26.463    c1.232-1.754,2.074-3.797,2.393-6H57v3C57,55.654,55.654,57,54,57z M61,33h-4v8H26.475c-0.328-0.469-0.675-0.926-1.063-1.357    c-2.227-2.475-5.776-3.259-8.826-1.954c-0.183,0.078-0.384,0.129-0.585,0.179V35h39v-2H16v-1c0-0.347,0.058-0.678,0.142-1H61V33z"/>
		<rect x="25" y="21" width="2" height="2"/>
		<rect x="25" y="25" width="2" height="2"/>
	</g>
	<path style="fill:#F0BC5E;" d="M10,39h4v0c0-3.314-2.686-6-6-6H4v0C4,36.314,6.686,39,10,39z"/>
</g>
</svg>
