<?xml version="1.0"?>
<svg xmlns="http://www.w3.org/2000/svg" id="Layer_5" enable-background="new 0 0 64 64" height="512px" viewBox="0 0 64 64" width="512px"><g><path d="m63 19.243c0-2.891-2.352-5.243-5.243-5.243-1.4 0-2.717.545-3.707 1.536l-7.05 7.05v-1.586h-10.063c1.3-2.023 2.063-4.422 2.063-7 0-7.168-5.832-13-13-13s-13 5.832-13 13c0 2.578.763 4.977 2.063 7h-10.063v10h-4v28h20.101c.464 2.279 2.485 4 4.899 4s4.435-1.721 4.899-4h20.101v-25.586l10.464-10.464c.991-.991 1.536-2.307 1.536-3.707zm-24 23.343-1.586-1.586 16.586-16.586 1.586 1.586zm-5.293-2.465 3.172 3.172-3.7.529zm2.293-.535-1.586-1.586 16.586-16.586 1.586 1.586zm9-16.586v1.586l-12.943 12.943-1.236 8.65 8.65-1.236 5.529-5.529v13.586h-10.528c-2.551 0-5.105.499-7.472 1.454v-27.505c3.275-.251 6.21-1.715 8.359-3.949zm-19-20c6.065 0 11 4.935 11 11s-4.935 11-11 11-11-4.935-11-11 4.935-11 11-11zm-19 20h9.641c.734.764 1.562 1.433 2.463 2h-10.104v14h14v-12.363c.65.154 1.317.26 2 .313v27.504c-2.367-.955-4.921-1.454-7.472-1.454h-10.528zm14 4v10h-10v-10zm28 30h-20v1c0 1.654-1.346 3-3 3s-3-1.346-3-3v-1h-20v-24h2v22h12.528c2.772 0 5.547.655 8.025 1.895l.447.223.447-.224c2.478-1.239 5.253-1.894 8.025-1.894h12.528v-17.586l2-2zm11.05-35.464-3.05 3.05-4.586-4.586 3.05-3.05c.613-.612 1.427-.95 2.293-.95 1.788 0 3.243 1.455 3.243 3.243 0 .866-.337 1.68-.95 2.293z" data-original="#000000" class="active-path" data-old_color="#000000" fill="#FFFFFF"/><path d="m26 19c-1.103 0-2-.897-2-2h-2c0 1.858 1.28 3.411 3 3.858v2.142h2v-2h3v-4c0-2.206-1.794-4-4-4-1.103 0-2-.897-2-2v-2h2c1.103 0 2 .897 2 2h2c0-1.858-1.28-3.411-3-3.858v-2.142h-2v2h-3v4c0 2.206 1.794 4 4 4 1.103 0 2 .897 2 2v2z" data-original="#000000" class="active-path" data-old_color="#000000" fill="#FFFFFF"/><circle cx="34" cy="14" r="1" data-original="#000000" class="active-path" data-old_color="#000000" fill="#FFFFFF"/><circle cx="18" cy="14" r="1" data-original="#000000" class="active-path" data-old_color="#000000" fill="#FFFFFF"/><path d="m9 41h14v2h-14z" data-original="#000000" class="active-path" data-old_color="#000000" fill="#FFFFFF"/><path d="m9 45h10v2h-10z" data-original="#000000" class="active-path" data-old_color="#000000" fill="#FFFFFF"/><path d="m21 45h2v2h-2z" data-original="#000000" class="active-path" data-old_color="#000000" fill="#FFFFFF"/><path d="m9 49h14v2h-14z" data-original="#000000" class="active-path" data-old_color="#000000" fill="#FFFFFF"/><path d="m29 49h14v2h-14z" data-original="#000000" class="active-path" data-old_color="#000000" fill="#FFFFFF"/></g> </svg>
