<svg height="512pt" viewBox="0 0 512 512" width="512pt" xmlns="http://www.w3.org/2000/svg"><path d="m382 502h-252v-492h252zm0 0" fill="#ffe6b4"/><path d="m462 502h-40v-80h40zm0 0" fill="#ffc144"/><path d="m422 482h-40v-40h40zm0 0" fill="#c68a65"/><path d="m462 442h20c11.046875 0 20 8.953125 20 20s-8.953125 20-20 20h-20zm0 0" fill="#c68a65"/><path d="m50 422h40v80h-40zm0 0" fill="#ffc144"/><path d="m90 442h40v40h-40zm0 0" fill="#c68a65"/><path d="m50 482h-20c-11.046875 0-20-8.953125-20-20s8.953125-20 20-20h20zm0 0" fill="#c68a65"/><path d="m462 90h-40v-80h40zm0 0" fill="#ffc144"/><path d="m422 70h-40v-40h40zm0 0" fill="#c68a65"/><path d="m462 30h20c11.046875 0 20 8.953125 20 20s-8.953125 20-20 20h-20zm0 0" fill="#c68a65"/><path d="m50 10h40v80h-40zm0 0" fill="#ffc144"/><path d="m90 30h40v40h-40zm0 0" fill="#c68a65"/><path d="m50 70h-20c-11.046875 0-20-8.953125-20-20s8.953125-20 20-20h20zm0 0" fill="#c68a65"/><path d="m210.125 160.75c-5.523438 0-10 4.476562-10 10 0 5.515625-4.484375 10-10 10s-10-4.484375-10-10c0-5.523438-4.476562-10-10-10s-10 4.476562-10 10c0 7.679688 2.914062 14.679688 7.679688 19.988281-4.769532 5.3125-7.679688 12.324219-7.679688 20.011719 0 16.542969 13.457031 30 30 30s30-13.457031 30-30c0-7.679688-2.910156-14.683594-7.675781-19.996094 4.769531-5.3125 7.675781-12.320312 7.675781-20.003906 0-5.523438-4.476562-10-10-10zm-20 60c-5.515625 0-10-4.484375-10-10s4.484375-10 10-10 10 4.484375 10 10-4.484375 10-10 10zm0 0"/><path d="m170.125 390.75c5.523438 0 10-4.476562 10-10 0-5.515625 4.484375-10 10-10s10 4.484375 10 10c0 5.523438 4.476562 10 10 10s10-4.476562 10-10c0-7.683594-2.910156-14.695312-7.679688-20.007812 4.765626-5.308594 7.679688-12.3125 7.679688-19.992188 0-16.542969-13.457031-30-30-30s-30 13.457031-30 30c0 7.679688 2.914062 14.679688 7.675781 19.988281-4.769531 5.3125-7.675781 12.328125-7.675781 20.011719 0 5.523438 4.476562 10 10 10zm20-60c5.515625 0 10 4.484375 10 10s-4.484375 10-10 10-10-4.484375-10-10 4.484375-10 10-10zm0 0"/><path d="m322.523438 160c-16.542969 0-30 13.457031-30 30v33c0 5.523438 4.476562 10 10 10 5.523437 0 10-4.476562 10-10v-33c0-5.515625 4.484374-10 10-10 5.511718 0 10 4.484375 10 10 0 5.523438 4.476562 10 10 10 5.523437 0 10-4.476562 10-10 0-16.542969-13.457032-30-30-30zm0 0"/><path d="m332.496094 377.300781c1.714844 3.597657 5.296875 5.703125 9.035156 5.703125 1.441406 0 2.90625-.316406 4.292969-.976562 4.984375-2.375 7.101562-8.339844 4.726562-13.328125l-9.027343-18.960938v-27.738281c0-5.523438-4.476563-10-10-10-5.523438 0-10 4.476562-10 10v31c0 5.515625-4.488282 10-10 10-5.515626 0-10-4.484375-10-10v-30c0-5.523438-4.476563-10-10-10-5.523438 0-10 4.476562-10 10v30c0 16.542969 13.457031 30 30 30 7.691406 0 14.710937-2.910156 20.027343-7.6875zm0 0"/><path d="m227.125 267.75c0 16.542969 13.457031 30 30 30s30-13.457031 30-30-13.457031-30-30-30-30 13.457031-30 30zm30-10c5.515625 0 10 4.484375 10 10s-4.484375 10-10 10-10-4.484375-10-10 4.484375-10 10-10zm0 0"/><path d="m382.015625 225c-5.507813 0-10 4.488281-10 10s4.492187 10 10 10c5.511719 0 10-4.488281 10-10s-4.492187-10-10-10zm0 0"/><path d="m482 432h-10v-10c0-5.523438-4.476562-10-10-10h-40c-5.523438 0-10 4.476562-10 10v10h-19.984375v-152c0-5.511719-4.488281-10-10-10-5.507813 0-10 4.488281-10 10v212h-232v-472h232v170c0 5.511719 4.492187 10 10 10 5.511719 0 10-4.488281 10-10v-110h19.984375v10c0 5.523438 4.476562 10 10 10h40c5.523438 0 10-4.476562 10-10v-10h10c16.542969 0 30-13.457031 30-30s-13.457031-30-30-30h-10v-10c0-5.523438-4.476562-10-10-10h-40c-5.523438 0-10 4.476562-10 10v10h-19.984375v-10c0-5.523438-4.476563-10-10-10h-252c-5.523437 0-10 4.476562-10 10v10h-20.015625v-10c0-5.523438-4.476562-10-10-10h-40c-5.523438 0-10 4.476562-10 10v10h-10c-16.542969 0-30 13.457031-30 30s13.457031 30 30 30h10v10c0 5.523438 4.476562 10 10 10h40c5.523438 0 10-4.476562 10-10v-10h20.015625v352h-20.015625v-10c0-5.523438-4.476562-10-10-10h-40c-5.523438 0-10 4.476562-10 10v10h-10c-16.542969 0-30 13.457031-30 30s13.457031 30 30 30h10v10c0 5.523438 4.476562 10 10 10h40c5.523438 0 10-4.476562 10-10v-10h20.015625v10c0 5.523438 4.476563 10 10 10h252c5.523437 0 10-4.476562 10-10v-10h19.984375v10c0 5.523438 4.476562 10 10 10h40c5.523438 0 10-4.476562 10-10v-10h10c16.542969 0 30-13.457031 30-30s-13.457031-30-30-30zm-10-392h10c5.515625 0 10 4.484375 10 10s-4.484375 10-10 10h-10zm-40-20h20v60h-20zm-39.984375 20h19.984375v20h-19.984375zm-352.015625 20h-10c-5.515625 0-10-4.484375-10-10s4.484375-10 10-10h10zm40 20h-20v-60h20zm40-20h-20v-20h20zm-80 412h-10c-5.515625 0-10-4.484375-10-10s4.484375-10 10-10h10zm40 20h-20v-60h20zm40-20h-20v-20h20zm292 0h-19.984375v-20h19.984375zm40 20h-20v-60h20zm30-20h-10v-20h10c5.515625 0 10 4.484375 10 10s-4.484375 10-10 10zm0 0"/><path d="m210.375 40c-5.523438 0-10 4.476562-10 10v12.402344c-3.269531-1.226563-6.808594-1.902344-10.5-1.902344-16.542969 0-30 13.457031-30 30s13.457031 30 30 30c7.785156 0 14.886719-2.980469 20.222656-7.863281 3.742188 4.226562 8.742188 7.859375 15.292969 9.910156.996094.308594 2 .457031 2.988281.457031 4.257813 0 8.203125-2.742187 9.542969-7.023437 1.644531-5.269531-1.292969-10.878907-6.5625-12.527344-8.53125-2.664063-10.625-12.113281-10.984375-14.171875v-39.28125c0-5.523438-4.476562-10-10-10zm-20.5 60.5c-5.515625 0-10-4.484375-10-10s4.484375-10 10-10 10 4.484375 10 10-4.484375 10-10 10zm0 0"/><path d="m267.226562 122.480469c1.589844 1 3.417969 1.519531 5.289063 1.519531 3.46875 0 6.648437-1.761719 8.492187-4.699219l15.898438-25.441406c.753906-1.207031 1.210938-2.515625 1.40625-3.84375.527344-2.5625.058594-5.332031-1.535156-7.660156l-26-38c-3.121094-4.5625-9.34375-5.730469-13.898438-2.609375-4.558594 3.121094-5.726562 9.34375-2.609375 13.902344l22.4375 32.792968-12.660156 20.257813c-2.921875 4.679687-1.5 10.859375 3.179687 13.78125zm0 0"/><path d="m312.265625 60.398438c3.46875 0 6.648437-1.757813 8.492187-4.699219 2.917969-4.679688 1.488282-10.859375-3.183593-13.777344-1.589844-1-3.417969-1.523437-5.289063-1.523437-3.480468 0-6.648437 1.75-8.488281 4.699218-2.921875 4.671875-1.5 10.863282 3.179687 13.78125 1.589844 1 3.417969 1.519532 5.289063 1.519532zm0 0"/><path d="m223.15625 465.9375c1.578125 3.683594 5.1875 6.0625 9.1875 6.0625h70.359375c5.511719 0 10-4.488281 10-10s-4.476563-9.988281-9.976563-10c-.011718 0-.011718 0-.023437 0h-47.066406s21.675781-22.835938 21.722656-22.886719c1.839844-1.8125 2.984375-4.332031 2.984375-7.113281 0-5.511719-4.488281-10-10-10h-62c-5.519531 0-10 4.488281-10 10s4.480469 10 10 10h38.707031l-21.957031 23.109375c-2.757812 2.902344-3.519531 7.160156-1.9375 10.828125zm0 0"/></svg>