<svg width="160" height="143" viewBox="0 0 160 143" fill="none" xmlns="http://www.w3.org/2000/svg">
<rect x="22" y="78" width="83" height="46" fill="#C4C4C4"/>
<path d="M158.5 58.5L132.5 99L69.5 132.5L29 124L12 92L96.5 32L105.5 21.5L145.5 11.5L149.5 21.5L145.5 32L135.5 55H152.5L158.5 58.5Z" fill="#C4C4C4"/>
<rect x="58" y="41" width="78" height="50" fill="#C4C4C4"/>
<path d="M144 55H146.5L147 56H134.5L130 57L126 54L120 51.5L119.5 49.5L120.5 47L122.5 45.5L119.5 42.5L122.5 42L124 38.5V34.5H127.5H133V31.5H135L134.5 29H140V26L143.5 25L144 19.5H151L153.5 22V40.5H150L149 38.5H145.5L143.5 41.5L140 47L142 52L144 55Z" fill="#C4C4C4"/>
<path d="M122 29L124 30.5V38.5L122.5 41.5L119.5 43L122.5 45.5L121 46.5L119.5 49.5V52L116.5 52.5L114 51H109L108.5 49.5L107 43L108.5 39L112 38.5L116.5 33.5V31L117 30.5L120 29H122Z" fill="#C4C4C4"/>
<path d="M149.5 18.5L151.5 19L144 19.5L143 25.5L140.5 26L139.5 29H134.5V31.5H132.5L132 34.5L123.5 34V30L120.5 29L115 31H108.5L97.5 27L102 22V17L104 15.5H105.5V12.5H108.5V11H110.5V9H112.5V7H115V3H122V0H133.5L134.5 1.5H145V5.5H148V11H149.5V18.5Z" fill="#C4C4C4"/>
<path d="M148 78.5L136 97.5H135H134.5L133.5 95.5H129.5V94H124.5L124 88L128 81V78.5L122.5 72L124 71L129.5 67L131.5 63.5L130.5 56.5L150.5 54L153 51.5H155H160V56.5V63.5L158 67L155 72L148 78.5Z" fill="#C4C4C4"/>
<path d="M125.5 69.5L123 71.5L119.5 70.5L116 71.5L113 74L105 82V85L108.5 91.5H106L101.5 94H87L77 84L82 73L86 61.5L95.5 59.5L98 57L101.5 51L105 52L108.5 51H110.5H113L116 52H119.5L125.5 53.5L128 55L130 58V61.5V65L128 68L125.5 69.5Z" fill="#FF5722"/>
<path d="M125.5 69.5L123 71.5L119.5 70.5L116 71.5L113 74L105 82V85L108.5 91.5H106L101.5 94H87L77 84L82 73L86 61.5L95.5 59.5L98 57L101.5 51L105 52L108.5 51H110.5H113L116 52H119.5L125.5 53.5L128 55L130 58V61.5V65L128 68L125.5 69.5Z" fill="url(#paint0_linear)"/>
<path d="M106.5 88L108 90.5H109V93.5H113.5L117 88H124L125 85.5L126.5 82L128.5 80.5V78.5L125 74.5L123 72.5L119.5 71L115.5 72L112 74.5L108 78.5L105 82V84.5L106.5 88Z" fill="#C4C4C4"/>
<path d="M63 32.5L62 36.5L63 42H66.5L67.5 48.5L72 51.5L73.5 56.5L75 59.5L78.5 62L81 65L82.5 70.5L84 66L85.5 62L89 61L95.5 59.5L98 57L99.5 54L101 51L105 52L108.5 51C108.667 50.5 108.9 49.3 108.5 48.5C108.1 47.7 107.667 45.5 107.5 44.5V41L109 39H112L114 35.5L116.5 33L116 31H110L105.5 30L99 28.5L95.5 26.5H91L90 30V34L89 37.5L87 39H82.5L76.5 37.5L71.5 35.5L69.5 33L67.5 32.5H63Z" fill="#C4C4C4"/>
<path d="M6 89L9.5 97.5H13.5V95L17 95.5V91.5H19L20.5 93.5L22.5 95.5V104.5H26V110H28.5V117.5L32 111.5H36V114H34.5V117.5H36V120H42V117.5H44.5V115.5H46.5V114H48.5V111.5H53.5V108L57 106.5L59.5 108H65.5V106.5H77L87 100V93.5L77 83.5L79.5 78L81.5 73V67L80.5 63.5L77 61.5L74 58L72.5 51.5L69.5 50.5L67 48V42H63.5L61 36.5L59.5 42L50.5 51.5H42L39.5 50.5V46.5L42 44.5V38L39.5 36.5L37.5 32.5L36 30.5L34.5 27.5V69H32L28.5 71L26 73H19H12.5L9.5 71L6 67L4.5 63.5H3L0.5 67L2 75V79L4.5 83.5L6 89Z" fill="#C4C4C4"/>
<path d="M76.5 133.5H69.5V127H61V124L64 123V119.5L67.5 118.5V114L72.5 112.5L76.5 110V106.5L83 101.5L88 101V94H101L106 91.5H109.5V93.5H113.5L117 87.5H124.5V93.5H130V95.5H133.5V97L136 98.5L102 130.5H91V133.5H82V136H76.5V133.5Z" fill="#C4C4C4"/>
<path d="M35.5 143H28.5L21 139.5V136H15.5L16 128L11.5 123V119.5H15.5V106.5H13.5V103H11.5V101H10V97H13.5V95.5H17V93.5V91.5H19V93.5H21V95.5H23V104.5H25V108.5V110.5H28.5V117L30 115.5L31.5 113.5V112H33.5H35.5V114H33.5V117L35.5 117.5V121H41.5V117.5H44.5V115.5H46.5V114L48.5 113.5L48 112L54 111.5V108.5H56V106.5H60V108.5H65.5V106.5H74.5V108.5V111.5H73V114H67.5V119.5H63V123H61.5V127H69V134H67.5V136H63V134H61.5H56V136H52.5V138V139.5H47.5H41.5H37.5V141.5H35.5V143Z" fill="#C4C4C4"/>
<path d="M91.3167 77.4812L89.5372 78.5742L90.6874 80.4469L90.1282 80.7904L87.5236 76.5499L90.1507 74.9363L90.4333 75.3965L88.3655 76.6666L89.2563 78.117L91.0358 77.024L91.3167 77.4812ZM93.1496 75.2604C93.0597 75.2969 92.9672 75.3444 92.872 75.4028C92.5186 75.6198 92.3713 75.9176 92.4299 76.2961L93.8038 78.5328L93.265 78.8638L91.3294 75.7125L91.8536 75.3905L92.086 75.7492C92.0898 75.3591 92.2538 75.0645 92.578 74.8654C92.6829 74.801 92.7708 74.7657 92.8419 74.7594L93.1496 75.2604ZM96.5714 76.9131C96.1443 77.1755 95.7108 77.2492 95.2712 77.1342C94.8303 77.0172 94.4656 76.7238 94.177 76.2539L94.1161 76.1549C93.9241 75.8423 93.8122 75.5273 93.7804 75.2099C93.7493 74.8893 93.7982 74.5946 93.9271 74.3255C94.0568 74.0533 94.2469 73.8403 94.4973 73.6865C94.907 73.4349 95.3083 73.3742 95.7013 73.5046C96.0942 73.6349 96.4451 73.9516 96.754 74.4544L96.8917 74.6787L94.7569 75.9899C94.9555 76.2958 95.2002 76.4918 95.4911 76.5779C95.7827 76.6609 96.0625 76.62 96.3304 76.4555C96.5207 76.3386 96.658 76.2008 96.7423 76.042C96.8267 75.8832 96.879 75.7094 96.8993 75.5204L97.3858 75.5746C97.371 76.1426 97.0996 76.5887 96.5714 76.9131ZM94.7692 74.1292C94.5518 74.2628 94.4182 74.4545 94.3684 74.7043C94.3174 74.9522 94.3621 75.2296 94.5025 75.5365L96.081 74.5669L96.056 74.5262C95.8723 74.2619 95.6685 74.0956 95.4447 74.0272C95.2196 73.9569 94.9945 73.9908 94.7692 74.1292ZM99.7344 74.9704C99.3072 75.2328 98.8738 75.3065 98.4341 75.1914C97.9932 75.0745 97.6285 74.7811 97.3399 74.3112L97.2791 74.2122C97.0871 73.8996 96.9751 73.5846 96.9433 73.2672C96.9122 72.9466 96.9612 72.6518 97.0901 72.3828C97.2197 72.1106 97.4098 71.8976 97.6603 71.7438C98.0699 71.4921 98.4713 71.4315 98.8642 71.5619C99.2571 71.6922 99.6081 72.0088 99.9169 72.5117L100.055 72.736L97.9198 74.0472C98.1184 74.3531 98.3631 74.5491 98.654 74.6352C98.9456 74.7181 99.2254 74.6773 99.4934 74.5127C99.6837 74.3959 99.821 74.2581 99.9053 74.0993C99.9896 73.9405 100.042 73.7667 100.062 73.5777L100.549 73.6318C100.534 74.1998 100.262 74.646 99.7344 74.9704ZM97.9322 72.1865C97.7147 72.32 97.5811 72.5117 97.5313 72.7616C97.4804 73.0095 97.525 73.2869 97.6654 73.5938L99.244 72.6242L99.2189 72.5835C99.0352 72.3192 98.8315 72.1529 98.6076 72.0845C98.3825 72.0141 98.1574 72.0481 97.9322 72.1865ZM103.206 70.1544C102.642 70.3111 102.189 70.3569 101.847 70.2916C101.505 70.2233 101.244 70.0415 101.062 69.7464C100.857 69.4124 100.821 69.055 100.953 68.6742C101.087 68.2902 101.367 67.967 101.794 67.7047C102.085 67.5258 102.379 67.4229 102.675 67.396C102.974 67.3678 103.246 67.4147 103.492 67.5364C103.739 67.6569 103.935 67.8346 104.08 68.0696L103.518 68.4148C103.36 68.1585 103.155 68.0077 102.903 67.9622C102.649 67.9148 102.374 67.9824 102.077 68.1648C101.801 68.3342 101.623 68.5277 101.543 68.7454C101.463 68.96 101.49 69.1751 101.622 69.3906C101.728 69.5634 101.891 69.6653 102.111 69.6962C102.331 69.724 102.647 69.6795 103.059 69.5627C103.474 69.4447 103.817 69.385 104.089 69.3838C104.361 69.3794 104.594 69.4276 104.787 69.5283C104.982 69.6279 105.146 69.7855 105.278 70.001C105.489 70.3447 105.525 70.7027 105.384 71.075C105.243 71.4454 104.948 71.7683 104.499 72.0438C104.208 72.2227 103.902 72.3343 103.582 72.3787C103.26 72.4211 102.971 72.3876 102.714 72.2781C102.458 72.1674 102.255 71.9888 102.104 71.7422L102.666 71.3969C102.823 71.6532 103.042 71.7983 103.322 71.8321C103.603 71.8628 103.902 71.781 104.218 71.5866C104.513 71.4053 104.703 71.2062 104.786 70.9892C104.869 70.7722 104.847 70.5598 104.72 70.3521C104.592 70.1443 104.421 70.0289 104.206 70.0057C103.99 69.9806 103.657 70.0301 103.206 70.1544ZM104.902 66.3253L105.37 67.0883L105.959 66.727L106.215 67.1435L105.626 67.5048L106.827 69.4591C106.904 69.5853 106.989 69.6643 107.08 69.6962C107.171 69.7261 107.279 69.7024 107.406 69.6248C107.468 69.5867 107.546 69.5225 107.64 69.4325L107.909 69.8693C107.791 69.9952 107.665 70.0993 107.531 70.1816C107.29 70.3295 107.064 70.3682 106.852 70.2977C106.64 70.2272 106.452 70.058 106.288 69.79L105.087 67.8358L104.514 68.1882L104.258 67.7717L104.832 67.4193L104.363 66.6562L104.902 66.3253ZM110.472 68.2951C110.403 68.2521 110.309 68.1569 110.192 68.0096C110.101 68.4236 109.882 68.7374 109.535 68.9509C109.224 69.1417 108.915 69.2111 108.608 69.1592C108.301 69.1042 108.065 68.9417 107.899 68.6718C107.698 68.3437 107.666 68.013 107.803 67.6798C107.942 67.3434 108.237 67.0363 108.69 66.7584L109.214 66.4364L109.062 66.1889C108.946 66.0005 108.798 65.8856 108.617 65.8441C108.436 65.8007 108.235 65.8463 108.016 65.9811C107.823 66.0991 107.692 66.2467 107.622 66.4237C107.551 66.6006 107.558 66.7581 107.643 66.8959L107.101 67.2286C107.005 67.0714 106.967 66.8859 106.988 66.6723C107.01 66.4556 107.09 66.2461 107.228 66.0438C107.368 65.8403 107.552 65.6682 107.781 65.5274C108.144 65.3044 108.485 65.221 108.803 65.2771C109.119 65.3312 109.379 65.5151 109.583 65.8288L110.474 67.2792C110.651 67.5685 110.829 67.7759 111.008 67.9015L111.037 67.9481L110.472 68.2951ZM109.325 68.4336C109.494 68.3299 109.628 68.1878 109.725 68.0074C109.823 67.827 109.863 67.6461 109.845 67.4645L109.448 66.818L109.026 67.0773C108.366 67.4828 108.154 67.8788 108.392 68.2651C108.495 68.4341 108.633 68.5315 108.804 68.5575C108.975 68.5835 109.149 68.5422 109.325 68.4336ZM110.098 63.1339L110.566 63.897L111.155 63.5356L111.41 63.9521L110.822 64.3135L112.022 66.2677C112.1 66.3939 112.185 66.473 112.276 66.5049C112.367 66.5348 112.475 66.511 112.601 66.4335C112.664 66.3953 112.742 66.3312 112.836 66.2411L113.105 66.678C112.987 66.8039 112.861 66.908 112.727 66.9903C112.486 67.1381 112.26 67.1768 112.048 67.1063C111.836 67.0358 111.648 66.8666 111.484 66.5987L110.283 64.6444L109.709 64.9968L109.454 64.5803L110.027 64.2279L109.559 63.4649L110.098 63.1339ZM115.066 65.5538C114.638 65.8162 114.205 65.8898 113.765 65.7748C113.324 65.6578 112.96 65.3644 112.671 64.8945L112.61 64.7955C112.418 64.4829 112.306 64.1679 112.275 63.8505C112.243 63.53 112.292 63.2352 112.421 62.9662C112.551 62.694 112.741 62.481 112.991 62.3271C113.401 62.0755 113.802 62.0149 114.195 62.1452C114.588 62.2756 114.939 62.5922 115.248 63.0951L115.386 63.3193L113.251 64.6306C113.45 64.9365 113.694 65.1325 113.985 65.2186C114.277 65.3015 114.557 65.2607 114.825 65.0961C115.015 64.9792 115.152 64.8414 115.236 64.6827C115.321 64.5239 115.373 64.35 115.393 64.1611L115.88 64.2152C115.865 64.7832 115.594 65.2294 115.066 65.5538ZM113.263 62.7698C113.046 62.9034 112.912 63.0951 112.863 63.345C112.812 63.5929 112.856 63.8703 112.997 64.1772L114.575 63.2076L114.55 63.1668C114.366 62.9026 114.163 62.7363 113.939 62.6679C113.714 62.5975 113.489 62.6315 113.263 62.7698Z" fill="white"/>
<defs>
<linearGradient id="paint0_linear" x1="103.5" y1="51" x2="103.5" y2="94" gradientUnits="userSpaceOnUse">
<stop stop-color="#FF5722"/>
<stop offset="1" stop-color="#424242"/>
</linearGradient>
</defs>
</svg>
