<svg width="160" height="143" viewBox="0 0 160 143" fill="none" xmlns="http://www.w3.org/2000/svg">
<rect x="22" y="78" width="83" height="46" fill="#C4C4C4"/>
<path d="M158.5 58.5L132.5 99L69.5 132.5L29 124L12 92L96.5 32L105.5 21.5L145.5 11.5L149.5 21.5L145.5 32L135.5 55H152.5L158.5 58.5Z" fill="#C4C4C4"/>
<rect x="58" y="41" width="78" height="50" fill="#C4C4C4"/>
<path d="M144 55H146.5L147 56H134.5L130 57L126 54L120 51.5L119.5 49.5L120.5 47L122.5 45.5L119.5 42.5L122.5 42L124 38.5V34.5H127.5H133V31.5H135L134.5 29H140V26L143.5 25L144 19.5H151L153.5 22V40.5H150L149 38.5H145.5L143.5 41.5L140 47L142 52L144 55Z" fill="#C4C4C4"/>
<path d="M122 29L124 30.5V38.5L122.5 41.5L119.5 43L122.5 45.5L121 46.5L119.5 49.5V52L116.5 52.5L114 51H109L108.5 49.5L107 43L108.5 39L112 38.5L116.5 33.5V31L117 30.5L120 29H122Z" fill="#C4C4C4"/>
<path d="M149.5 18.5L151.5 19L144 19.5L143 25.5L140.5 26L139.5 29H134.5V31.5H132.5L132 34.5L123.5 34V30L120.5 29L115 31H108.5L97.5 27L102 22V17L104 15.5H105.5V12.5H108.5V11H110.5V9H112.5V7H115V3H122V0H133.5L134.5 1.5H145V5.5H148V11H149.5V18.5Z" fill="#C4C4C4"/>
<path d="M148 78.5L136 97.5H135H134.5L133.5 95.5H129.5V94H124.5L124 88L128 81V78.5L122.5 72L124 71L129.5 67L131.5 63.5L130.5 56.5L150.5 54L153 51.5H155H160V56.5V63.5L158 67L155 72L148 78.5Z" fill="#C4C4C4"/>
<path d="M125.5 69.5L123 71.5L119.5 70.5L116 71.5L113 74L105 82V85L108.5 91.5H106L101.5 94H87L77 84L82 73L86 61.5L95.5 59.5L98 57L101.5 51L105 52L108.5 51H110.5H113L116 52H119.5L125.5 53.5L128 55L130 58V61.5V65L128 68L125.5 69.5Z" fill="#C4C4C4"/>
<path d="M106.5 88L108 90.5H109V93.5H113.5L117 88H124L125 85.5L126.5 82L128.5 80.5V78.5L125 74.5L123 72.5L119.5 71L115.5 72L112 74.5L108 78.5L105 82V84.5L106.5 88Z" fill="#C4C4C4"/>
<path d="M63 32.5L62 36.5L63 42H66.5L67.5 48.5L72 51.5L73.5 56.5L75 59.5L78.5 62L81 65L82.5 70.5L84 66L85.5 62L89 61L95.5 59.5L98 57L99.5 54L101 51L105 52L108.5 51C108.667 50.5 108.9 49.3 108.5 48.5C108.1 47.7 107.667 45.5 107.5 44.5V41L109 39H112L114 35.5L116.5 33L116 31H110L105.5 30L99 28.5L95.5 26.5H91L90 30V34L89 37.5L87 39H82.5L76.5 37.5L71.5 35.5L69.5 33L67.5 32.5H63Z" fill="#FF5722"/>
<path d="M63 32.5L62 36.5L63 42H66.5L67.5 48.5L72 51.5L73.5 56.5L75 59.5L78.5 62L81 65L82.5 70.5L84 66L85.5 62L89 61L95.5 59.5L98 57L99.5 54L101 51L105 52L108.5 51C108.667 50.5 108.9 49.3 108.5 48.5C108.1 47.7 107.667 45.5 107.5 44.5V41L109 39H112L114 35.5L116.5 33L116 31H110L105.5 30L99 28.5L95.5 26.5H91L90 30V34L89 37.5L87 39H82.5L76.5 37.5L71.5 35.5L69.5 33L67.5 32.5H63Z" fill="url(#paint0_linear)"/>
<path d="M6 89L9.5 97.5H13.5V95L17 95.5V91.5H19L20.5 93.5L22.5 95.5V104.5H26V110H28.5V117.5L32 111.5H36V114H34.5V117.5H36V120H42V117.5H44.5V115.5H46.5V114H48.5V111.5H53.5V108L57 106.5L59.5 108H65.5V106.5H77L87 100V93.5L77 83.5L79.5 78L81.5 73V67L80.5 63.5L77 61.5L74 58L72.5 51.5L69.5 50.5L67 48V42H63.5L61 36.5L59.5 42L50.5 51.5H42L39.5 50.5V46.5L42 44.5V38L39.5 36.5L37.5 32.5L36 30.5L34.5 27.5V69H32L28.5 71L26 73H19H12.5L9.5 71L6 67L4.5 63.5H3L0.5 67L2 75V79L4.5 83.5L6 89Z" fill="#C4C4C4"/>
<path d="M76.5 133.5H69.5V127H61V124L64 123V119.5L67.5 118.5V114L72.5 112.5L76.5 110V106.5L83 101.5L88 101V94H101L106 91.5H109.5V93.5H113.5L117 87.5H124.5V93.5H130V95.5H133.5V97L136 98.5L102 130.5H91V133.5H82V136H76.5V133.5Z" fill="#C4C4C4"/>
<path d="M35.5 143H28.5L21 139.5V136H15.5L16 128L11.5 123V119.5H15.5V106.5H13.5V103H11.5V101H10V97H13.5V95.5H17V93.5V91.5H19V93.5H21V95.5H23V104.5H25V108.5V110.5H28.5V117L30 115.5L31.5 113.5V112H33.5H35.5V114H33.5V117L35.5 117.5V121H41.5V117.5H44.5V115.5H46.5V114L48.5 113.5L48 112L54 111.5V108.5H56V106.5H60V108.5H65.5V106.5H74.5V108.5V111.5H73V114H67.5V119.5H63V123H61.5V127H69V134H67.5V136H63V134H61.5H56V136H52.5V138V139.5H47.5H41.5H37.5V141.5H35.5V143Z" fill="#C4C4C4"/>
<path d="M73.6534 48.2738L72.9951 48.2309L70.7447 44.241L70.4951 48.0678L69.8368 48.0249L70.1607 43.0589L70.819 43.1018L73.0751 47.1092L73.3259 43.2653L73.9773 43.3078L73.6534 48.2738ZM74.673 46.4531C74.6966 46.0915 74.7883 45.771 74.9481 45.4914C75.1102 45.2119 75.3225 45.002 75.5852 44.8616C75.8501 44.7213 76.1451 44.6618 76.4702 44.683C76.9728 44.7158 77.3673 44.9162 77.6538 45.2843C77.9427 45.6525 78.0682 46.1254 78.0305 46.7029L78.0277 46.7472C78.0042 47.1065 77.9138 47.4249 77.7564 47.7023C77.6014 47.9776 77.3903 48.1865 77.123 48.3289C76.8579 48.4715 76.5594 48.5319 76.2274 48.5103C75.7272 48.4776 75.3327 48.2772 75.0438 47.909C74.7573 47.5409 74.6327 47.0704 74.6701 46.4974L74.673 46.4531ZM75.3025 46.5695C75.2758 46.9788 75.3487 47.3135 75.5213 47.5736C75.6961 47.8339 75.9427 47.9745 76.261 47.9952C76.5816 48.0162 76.8445 47.9077 77.0495 47.6699C77.2547 47.4298 77.3721 47.0835 77.4016 46.631C77.428 46.2263 77.3527 45.8926 77.1757 45.6298C77.0012 45.365 76.7548 45.2222 76.4364 45.2014C76.1249 45.1811 75.8656 45.2886 75.6584 45.524C75.4512 45.7594 75.3326 46.1079 75.3025 46.5695ZM80.6889 45.5953C80.5944 45.5731 80.4915 45.5584 80.38 45.5511C79.9662 45.5242 79.6739 45.6821 79.5031 46.0249L79.3322 48.6443L78.7012 48.6031L78.942 44.9127L79.5559 44.9528L79.5383 45.3798C79.7668 45.0636 80.0708 44.9179 80.4506 44.9426C80.5733 44.9506 80.6655 44.9726 80.7271 45.0086L80.6889 45.5953ZM82.3939 44.2405L82.3356 45.1341L83.0246 45.1791L82.9928 45.6668L82.3038 45.6218L82.1545 47.9104C82.1449 48.0582 82.1683 48.1717 82.2248 48.2507C82.2815 48.3275 82.3837 48.3707 82.5315 48.3803C82.6043 48.385 82.7052 48.3779 82.8343 48.359L82.8009 48.8706C82.632 48.9052 82.4691 48.9174 82.3122 48.9072C82.0302 48.8888 81.8232 48.7897 81.691 48.6098C81.5589 48.4299 81.5031 48.1831 81.5236 47.8693L81.6728 45.5807L81.0009 45.5368L81.0328 45.0491L81.7047 45.0929L81.763 44.1993L82.3939 44.2405ZM84.3666 45.7153C84.6687 45.3902 85.0437 45.2423 85.4916 45.2715C86.2715 45.3224 86.6362 45.788 86.5856 46.6684L86.4265 49.1071L85.7955 49.0659L85.9548 46.6238C85.9699 46.3576 85.9214 46.157 85.8092 46.0218C85.6992 45.8867 85.5181 45.811 85.2657 45.7945C85.061 45.7811 84.8778 45.824 84.7161 45.9231C84.5544 46.0221 84.4245 46.1575 84.3265 46.3292L84.155 48.9589L83.524 48.9177L83.8657 43.6789L84.4967 43.72L84.3666 45.7153ZM90.3759 47.7925L90.4287 48.4536L90.6071 47.8727L91.8154 44.4715L92.3679 44.5075L93.1003 48.0353L93.1976 48.6445L93.3469 47.9829L94.3393 44.6361L94.9976 44.679L93.4697 49.5665L92.8728 49.5276L92.0856 45.8421L92.0319 45.4583L91.9287 45.8318L90.6319 49.3814L90.0351 49.3425L89.1584 44.2981L89.8133 44.3409L90.3759 47.7925ZM96.7224 49.8472C96.2222 49.8146 95.8259 49.6243 95.5334 49.2764C95.2412 48.9262 95.113 48.476 95.1489 47.9258L95.1564 47.8098C95.1803 47.4437 95.271 47.1219 95.4283 46.8445C95.5882 46.5649 95.7984 46.3526 96.059 46.2074C96.3221 46.0602 96.6003 45.9961 96.8936 46.0153C97.3734 46.0466 97.736 46.2289 97.9814 46.5623C98.2268 46.8957 98.3303 47.3569 98.2919 47.9458L98.2748 48.2084L95.7747 48.0454C95.7601 48.4098 95.8466 48.7111 96.0343 48.9494C96.2244 49.1856 96.4764 49.3139 96.7902 49.3344C97.013 49.3489 97.2047 49.3158 97.3652 49.2349C97.5258 49.154 97.6689 49.0424 97.7947 48.8999L98.1605 49.2251C97.8203 49.6802 97.3409 49.8875 96.7224 49.8472ZM96.8598 46.5337C96.6052 46.5171 96.3853 46.5964 96.2004 46.7715C96.0155 46.9444 95.8918 47.1967 95.829 47.5283L97.6776 47.6489L97.6807 47.6011C97.6835 47.2793 97.6132 47.0258 97.47 46.8407C97.327 46.6532 97.1236 46.5509 96.8598 46.5337ZM101.112 49.082C101.123 48.9115 101.067 48.7754 100.944 48.6737C100.822 48.5699 100.604 48.4734 100.288 48.3843C99.9738 48.2953 99.7256 48.1969 99.5431 48.0891C99.3628 47.9814 99.2316 47.8587 99.1492 47.7209C99.0691 47.5832 99.035 47.4234 99.0469 47.2415C99.0666 46.9391 99.2106 46.6916 99.479 46.499C99.7495 46.3066 100.084 46.2234 100.482 46.2493C100.9 46.2766 101.232 46.4067 101.477 46.6396C101.724 46.8727 101.837 47.1575 101.815 47.494L101.181 47.4526C101.192 47.2798 101.128 47.1261 100.988 46.9914C100.851 46.8568 100.671 46.7823 100.448 46.7677C100.218 46.7528 100.035 46.7911 99.8992 46.8827C99.7631 46.9743 99.6897 47.1008 99.6792 47.2622C99.6693 47.4146 99.722 47.5333 99.8375 47.6185C99.953 47.7037 100.165 47.7917 100.474 47.8827C100.786 47.9738 101.036 48.0746 101.225 48.1851C101.415 48.2957 101.551 48.4233 101.635 48.5681C101.722 48.7108 101.759 48.881 101.746 49.0788C101.725 49.4085 101.575 49.6648 101.299 49.8477C101.022 50.0283 100.673 50.1049 100.253 50.0775C99.9569 50.0582 99.6989 49.9888 99.4783 49.8694C99.2578 49.75 99.0888 49.5928 98.9713 49.3979C98.8563 49.2009 98.8059 48.9932 98.8201 48.7749L99.4511 48.8161C99.4487 49.0283 99.5218 49.2021 99.6706 49.3373C99.8217 49.4705 100.027 49.5456 100.286 49.5625C100.525 49.578 100.719 49.5427 100.868 49.4566C101.02 49.3683 101.102 49.2434 101.112 49.082ZM103.656 45.6275L103.598 46.5211L104.287 46.5661L104.255 47.0538L103.566 47.0088L103.417 49.2974C103.407 49.4452 103.431 49.5587 103.487 49.6377C103.544 49.7145 103.646 49.7577 103.794 49.7673C103.867 49.7721 103.968 49.7649 104.097 49.746L104.063 50.2576C103.894 50.2922 103.731 50.3044 103.575 50.2942C103.293 50.2758 103.086 50.1767 102.953 49.9968C102.821 49.8169 102.766 49.5701 102.786 49.2563L102.935 46.9677L102.263 46.9239L102.295 46.4361L102.967 46.48L103.025 45.5863L103.656 45.6275Z" fill="white"/>
<defs>
<linearGradient id="paint0_linear" x1="89.25" y1="26.5" x2="89.25" y2="70.5" gradientUnits="userSpaceOnUse">
<stop stop-color="#FF5722"/>
<stop offset="1" stop-color="#424242"/>
</linearGradient>
</defs>
</svg>
