<svg width="160" height="143" viewBox="0 0 160 143" fill="none" xmlns="http://www.w3.org/2000/svg">
<rect x="22" y="78" width="83" height="46" fill="#C4C4C4"/>
<path d="M158.5 58.5L132.5 99L69.5 132.5L29 124L12 92L96.5 32L105.5 21.5L145.5 11.5L149.5 21.5L145.5 32L135.5 55H152.5L158.5 58.5Z" fill="#C4C4C4"/>
<rect x="58" y="41" width="78" height="50" fill="#C4C4C4"/>
<path d="M144 55H146.5L147 56H134.5L130 57L126 54L120 51.5L119.5 49.5L120.5 47L122.5 45.5L119.5 42.5L122.5 42L124 38.5V34.5H127.5H133V31.5H135L134.5 29H140V26L143.5 25L144 19.5H151L153.5 22V40.5H150L149 38.5H145.5L143.5 41.5L140 47L142 52L144 55Z" fill="#C4C4C4"/>
<path d="M122 29L124 30.5V38.5L122.5 41.5L119.5 43L122.5 45.5L121 46.5L119.5 49.5V52L116.5 52.5L114 51H109L108.5 49.5L107 43L108.5 39L112 38.5L116.5 33.5V31L117 30.5L120 29H122Z" fill="#C4C4C4"/>
<path d="M149.5 18.5L151.5 19L144 19.5L143 25.5L140.5 26L139.5 29H134.5V31.5H132.5L132 34.5L123.5 34V30L120.5 29L115 31H108.5L97.5 27L102 22V17L104 15.5H105.5V12.5H108.5V11H110.5V9H112.5V7H115V3H122V0H133.5L134.5 1.5H145V5.5H148V11H149.5V18.5Z" fill="#C4C4C4"/>
<path d="M148 78.5L136 97.5H135H134.5L133.5 95.5H129.5V94H124.5L124 88L128 81V78.5L122.5 72L124 71L129.5 67L131.5 63.5L130.5 56.5L153.5 57L153 51.5H155H160V56.5V63.5L158 67L155 72L148 78.5Z" fill="#C4C4C4"/>
<path d="M125.5 69.5L123 71.5L119.5 70.5L116 71.5L113 74L105 82V85L108.5 91.5H106L101.5 94H87L77 84L82 73L86 61.5L95.5 59.5L98 57L101.5 51L105 52L108.5 51H110.5H113L116 52H119.5L125.5 53.5L128 55L130 58V61.5V65L128 68L125.5 69.5Z" fill="#C4C4C4"/>
<path d="M106.5 88L108 90.5H109V93.5H113.5L117 88H124L125 85.5L126.5 82L128.5 80.5V78.5L125 74.5L123 72.5L119.5 71L115.5 72L112 74.5L108 78.5L105 82V84.5L106.5 88Z" fill="#C4C4C4"/>
<path d="M63 32.5L62 36.5L63 42H66.5L67.5 48.5L72 51.5L73.5 56.5L75 59.5L78.5 62L81 65L82.5 70.5L84 66L85.5 62L89 61L95.5 59.5L98 57L99.5 54L101 51L105 52L108.5 51C108.667 50.5 108.9 49.3 108.5 48.5C108.1 47.7 107.667 45.5 107.5 44.5V41L109 39H112L114 35.5L116.5 33L116 31H110L105.5 30L99 28.5L95.5 26.5H91L90 30V34L89 37.5L87 39H82.5L76.5 37.5L71.5 35.5L69.5 33L67.5 32.5H63Z" fill="#C4C4C4"/>
<path d="M6 89L9.5 97.5H13.5V95L17 95.5V91.5H19L20.5 93.5L22.5 95.5V104.5H26V110H28.5V117.5L32 111.5H36V114H34.5V117.5H36V120H42V117.5H44.5V115.5H46.5V114H48.5V111.5H53.5V108L57 106.5L59.5 108H65.5V106.5H77L87 100V93.5L77 83.5L79.5 78L81.5 73V67L80.5 63.5L77 61.5L74 58L72.5 51.5L69.5 50.5L67 48V42H63.5L61 36.5L59.5 42L50.5 51.5H42L39.5 50.5V46.5L42 44.5V38L39.5 36.5L37.5 32.5L36 30.5L34.5 27.5V69H32L28.5 71L26 73H19H12.5L9.5 71L6 67L4.5 63.5H3L0.5 67L2 75V79L4.5 83.5L6 89Z" fill="#FF5722"/>
<path d="M6 89L9.5 97.5H13.5V95L17 95.5V91.5H19L20.5 93.5L22.5 95.5V104.5H26V110H28.5V117.5L32 111.5H36V114H34.5V117.5H36V120H42V117.5H44.5V115.5H46.5V114H48.5V111.5H53.5V108L57 106.5L59.5 108H65.5V106.5H77L87 100V93.5L77 83.5L79.5 78L81.5 73V67L80.5 63.5L77 61.5L74 58L72.5 51.5L69.5 50.5L67 48V42H63.5L61 36.5L59.5 42L50.5 51.5H42L39.5 50.5V46.5L42 44.5V38L39.5 36.5L37.5 32.5L36 30.5L34.5 27.5V69H32L28.5 71L26 73H19H12.5L9.5 71L6 67L4.5 63.5H3L0.5 67L2 75V79L4.5 83.5L6 89Z" fill="url(#paint0_linear)"/>
<path d="M76.5 133.5H69.5V127H61V124L64 123V119.5L67.5 118.5V114L72.5 112.5L76.5 110V106.5L83 101.5L88 101V94H101L106 91.5H109.5V93.5H113.5L117 87.5H124.5V93.5H130V95.5H133.5V97L136 98.5L102 130.5H91V133.5H82V136H76.5V133.5Z" fill="#C4C4C4"/>
<path d="M35.5 143H28.5L21 139.5V136H15.5L16 128L11.5 123V119.5H15.5V106.5H13.5V103H11.5V101H10V97H13.5V95.5H17V93.5V91.5H19V93.5H21V95.5H23V104.5H25V108.5V110.5H28.5V117L30 115.5L31.5 113.5V112H33.5H35.5V114H33.5V117L35.5 117.5V121H41.5V117.5H44.5V115.5H46.5V114L48.5 113.5L48 112L54 111.5V108.5H56V106.5H60V108.5H65.5V106.5H74.5V108.5V111.5H73V114H67.5V119.5H63V123H61.5V127H69V134H67.5V136H63V134H61.5H56V136H52.5V138V139.5H47.5H41.5H37.5V141.5H35.5V143Z" fill="#C4C4C4"/>
<path d="M37.4023 84H36.7427L34.2373 80.165V84H33.5776V79.0234H34.2373L36.7495 82.8755V79.0234H37.4023V84ZM38.3013 82.1167C38.3013 81.7544 38.3719 81.4285 38.5132 81.1392C38.6567 80.8498 38.855 80.6265 39.1079 80.4692C39.3631 80.312 39.6536 80.2334 39.9795 80.2334C40.4831 80.2334 40.8898 80.4077 41.1997 80.7563C41.5119 81.105 41.668 81.5687 41.668 82.1475V82.1919C41.668 82.5519 41.5985 82.8755 41.4595 83.1626C41.3228 83.4474 41.1257 83.6696 40.8682 83.8291C40.613 83.9886 40.319 84.0684 39.9863 84.0684C39.485 84.0684 39.0783 83.894 38.7661 83.5454C38.4562 83.1968 38.3013 82.7354 38.3013 82.1611V82.1167ZM38.937 82.1919C38.937 82.6021 39.0316 82.9313 39.2207 83.1797C39.4121 83.4281 39.6673 83.5522 39.9863 83.5522C40.3076 83.5522 40.5628 83.4269 40.752 83.1763C40.9411 82.9233 41.0356 82.5701 41.0356 82.1167C41.0356 81.7111 40.9388 81.383 40.7451 81.1323C40.5537 80.8794 40.2985 80.7529 39.9795 80.7529C39.6673 80.7529 39.4155 80.8771 39.2241 81.1255C39.0327 81.3739 38.937 81.7293 38.937 82.1919ZM44.2485 80.8691C44.1528 80.8532 44.0492 80.8452 43.9375 80.8452C43.5228 80.8452 43.2414 81.0218 43.0933 81.375V84H42.4609V80.3018H43.0762L43.0864 80.729C43.2938 80.3986 43.5877 80.2334 43.9683 80.2334C44.0913 80.2334 44.1847 80.2493 44.2485 80.2812V80.8691ZM45.8618 79.4062V80.3018H46.5522V80.7905H45.8618V83.084C45.8618 83.2321 45.8926 83.3438 45.9541 83.4189C46.0156 83.4919 46.1204 83.5283 46.2686 83.5283C46.3415 83.5283 46.4417 83.5146 46.5693 83.4873V84C46.403 84.0456 46.2412 84.0684 46.084 84.0684C45.8014 84.0684 45.5884 83.9829 45.4448 83.812C45.3013 83.6411 45.2295 83.3984 45.2295 83.084V80.7905H44.5562V80.3018H45.2295V79.4062H45.8618ZM47.9263 80.7495C48.2065 80.4054 48.5711 80.2334 49.02 80.2334C49.8016 80.2334 50.1958 80.6743 50.2026 81.5562V84H49.5703V81.5527C49.568 81.2861 49.5065 81.089 49.3857 80.9614C49.2673 80.8338 49.0815 80.77 48.8286 80.77C48.6235 80.77 48.4435 80.8247 48.2886 80.9341C48.1336 81.0435 48.0129 81.187 47.9263 81.3647V84H47.2939V78.75H47.9263V80.7495ZM52.6841 84.0684C52.1828 84.0684 51.7749 83.9043 51.4604 83.5762C51.146 83.2458 50.9888 82.8049 50.9888 82.2534V82.1372C50.9888 81.7703 51.0583 81.4434 51.1973 81.1562C51.3385 80.8669 51.5345 80.6413 51.7852 80.4795C52.0381 80.3154 52.3115 80.2334 52.6055 80.2334C53.0863 80.2334 53.46 80.3918 53.7266 80.7085C53.9932 81.0252 54.1265 81.4787 54.1265 82.0688V82.332H51.6211C51.6302 82.6966 51.7362 82.9917 51.939 83.2173C52.144 83.4406 52.4038 83.5522 52.7183 83.5522C52.9416 83.5522 53.1307 83.5067 53.2856 83.4155C53.4406 83.3244 53.5762 83.2036 53.6924 83.0532L54.0786 83.354C53.7687 83.8302 53.3039 84.0684 52.6841 84.0684ZM52.6055 80.7529C52.3503 80.7529 52.1361 80.8464 51.9629 81.0332C51.7897 81.2178 51.6826 81.4775 51.6416 81.8125H53.4941V81.7646C53.4759 81.4434 53.3893 81.195 53.2344 81.0195C53.0794 80.8418 52.8698 80.7529 52.6055 80.7529ZM56.6489 80.8691C56.5532 80.8532 56.4495 80.8452 56.3379 80.8452C55.9232 80.8452 55.6418 81.0218 55.4937 81.375V84H54.8613V80.3018H55.4766L55.4868 80.729C55.6942 80.3986 55.9881 80.2334 56.3687 80.2334C56.4917 80.2334 56.5851 80.2493 56.6489 80.2812V80.8691ZM57.8315 80.3018L57.8521 80.7666C58.1346 80.4111 58.5037 80.2334 58.9595 80.2334C59.741 80.2334 60.1353 80.6743 60.1421 81.5562V84H59.5098V81.5527C59.5075 81.2861 59.446 81.089 59.3252 80.9614C59.2067 80.8338 59.021 80.77 58.7681 80.77C58.563 80.77 58.383 80.8247 58.228 80.9341C58.0731 81.0435 57.9523 81.187 57.8657 81.3647V84H57.2334V80.3018H57.8315ZM37.2383 90.4209C37.1768 90.9473 36.9819 91.354 36.6538 91.6411C36.328 91.9259 35.8939 92.0684 35.3516 92.0684C34.7637 92.0684 34.292 91.8576 33.9365 91.436C33.5833 91.0145 33.4067 90.4505 33.4067 89.7441V89.2656C33.4067 88.8031 33.4888 88.3963 33.6528 88.0454C33.8192 87.6945 34.0539 87.4256 34.3569 87.2388C34.66 87.0496 35.0109 86.9551 35.4097 86.9551C35.9383 86.9551 36.3621 87.1032 36.6812 87.3994C37.0002 87.6934 37.1859 88.1012 37.2383 88.623H36.5786C36.5216 88.2266 36.3975 87.9395 36.2061 87.7617C36.0169 87.584 35.7515 87.4951 35.4097 87.4951C34.9904 87.4951 34.6611 87.6501 34.4219 87.96C34.1849 88.2699 34.0664 88.7108 34.0664 89.2827V89.7646C34.0664 90.3047 34.1792 90.7342 34.4048 91.0532C34.6304 91.3722 34.946 91.5317 35.3516 91.5317C35.7161 91.5317 35.9953 91.4497 36.189 91.2856C36.3849 91.1193 36.5148 90.8311 36.5786 90.4209H37.2383ZM40.3213 92C40.2848 91.9271 40.2552 91.7972 40.2324 91.6104C39.9385 91.9157 39.5876 92.0684 39.1797 92.0684C38.8151 92.0684 38.5155 91.9658 38.2808 91.7607C38.0483 91.5534 37.9321 91.2913 37.9321 90.9746C37.9321 90.5895 38.078 90.291 38.3696 90.0791C38.6636 89.8649 39.076 89.7578 39.6069 89.7578H40.2222V89.4673C40.2222 89.2463 40.1561 89.0708 40.0239 88.9409C39.8918 88.8088 39.6969 88.7427 39.4395 88.7427C39.2139 88.7427 39.0247 88.7996 38.8721 88.9136C38.7194 89.0275 38.6431 89.1654 38.6431 89.3271H38.0073C38.0073 89.1426 38.0723 88.9648 38.2021 88.7939C38.3343 88.6208 38.512 88.484 38.7354 88.3838C38.9609 88.2835 39.2082 88.2334 39.4771 88.2334C39.9032 88.2334 40.237 88.3405 40.4785 88.5547C40.7201 88.7666 40.8454 89.0594 40.8545 89.4331V91.1353C40.8545 91.4748 40.8978 91.7448 40.9844 91.9453V92H40.3213ZM39.272 91.5181C39.4702 91.5181 39.6582 91.4668 39.8359 91.3643C40.0137 91.2617 40.1424 91.1284 40.2222 90.9644V90.2056H39.7266C38.9518 90.2056 38.5645 90.4323 38.5645 90.8857C38.5645 91.084 38.6305 91.2389 38.7627 91.3506C38.8949 91.4622 39.0646 91.5181 39.272 91.5181ZM44.9697 90.1919C44.9697 90.7547 44.841 91.2082 44.5835 91.5522C44.326 91.8963 43.9774 92.0684 43.5376 92.0684C43.0887 92.0684 42.7355 91.9259 42.478 91.6411V93.4219H41.8457V88.3018H42.4233L42.4541 88.7119C42.7116 88.3929 43.0693 88.2334 43.5273 88.2334C43.9717 88.2334 44.3226 88.4009 44.5801 88.7358C44.8398 89.0708 44.9697 89.5368 44.9697 90.1338V90.1919ZM44.3374 90.1201C44.3374 89.7031 44.2485 89.3739 44.0708 89.1323C43.8931 88.8908 43.6493 88.77 43.3394 88.77C42.9565 88.77 42.6694 88.9398 42.478 89.2793V91.0464C42.6672 91.3836 42.9565 91.5522 43.3462 91.5522C43.6493 91.5522 43.8896 91.4326 44.0674 91.1934C44.2474 90.9518 44.3374 90.5941 44.3374 90.1201ZM47.311 92.0684C46.8097 92.0684 46.4019 91.9043 46.0874 91.5762C45.7729 91.2458 45.6157 90.8049 45.6157 90.2534V90.1372C45.6157 89.7703 45.6852 89.4434 45.8242 89.1562C45.9655 88.8669 46.1615 88.6413 46.4121 88.4795C46.665 88.3154 46.9385 88.2334 47.2324 88.2334C47.7132 88.2334 48.0869 88.3918 48.3535 88.7085C48.6201 89.0252 48.7534 89.4787 48.7534 90.0688V90.332H46.248C46.2572 90.6966 46.3631 90.9917 46.5659 91.2173C46.771 91.4406 47.0308 91.5522 47.3452 91.5522C47.5685 91.5522 47.7576 91.5067 47.9126 91.4155C48.0675 91.3244 48.2031 91.2036 48.3193 91.0532L48.7056 91.354C48.3957 91.8302 47.9308 92.0684 47.311 92.0684ZM47.2324 88.7529C46.9772 88.7529 46.763 88.8464 46.5898 89.0332C46.4167 89.2178 46.3096 89.4775 46.2686 89.8125H48.1211V89.7646C48.1029 89.4434 48.0163 89.195 47.8613 89.0195C47.7064 88.8418 47.4967 88.7529 47.2324 88.7529Z" fill="white"/>
<defs>
<linearGradient id="paint0_linear" x1="43.75" y1="27.5" x2="43.75" y2="120" gradientUnits="userSpaceOnUse">
<stop stop-color="#FF5722"/>
<stop offset="1" stop-color="#424242"/>
</linearGradient>
</defs>
</svg>
