<svg width="160" height="143" viewBox="0 0 160 143" fill="none" xmlns="http://www.w3.org/2000/svg">
<rect x="22" y="78" width="83" height="46" fill="#C4C4C4"/>
<path d="M158.5 58.5L132.5 99L69.5 132.5L29 124L12 92L96.5 32L105.5 21.5L145.5 11.5L149.5 21.5L145.5 32L135.5 55H152.5L158.5 58.5Z" fill="#C4C4C4"/>
<rect x="58" y="41" width="78" height="50" fill="#C4C4C4"/>
<path d="M144 55H146.5L147 56H134.5L130 57L126 54L120 51.5L119.5 49.5L120.5 47L122.5 45.5L119.5 42.5L122.5 42L124 38.5V34.5H127.5H133V31.5H135L134.5 29H140V26L143.5 25L144 19.5H151L153.5 22V40.5H150L149 38.5H145.5L143.5 41.5L140 47L142 52L144 55Z" fill="#C4C4C4"/>
<path d="M122 29L124 30.5V38.5L122.5 41.5L119.5 43L122.5 45.5L121 46.5L119.5 49.5V52L116.5 52.5L114 51H109L108.5 49.5L107 43L108.5 39L112 38.5L116.5 33.5V31L117 30.5L120 29H122Z" fill="#C4C4C4"/>
<path d="M149.5 18.5L151.5 19L144 19.5L143 25.5L140.5 26L139.5 29H134.5V31.5H132.5L132 34.5L123.5 34V30L120.5 29L115 31H108.5L97.5 27L102 22V17L104 15.5H105.5V12.5H108.5V11H110.5V9H112.5V7H115V3H122V0H133.5L134.5 1.5H145V5.5H148V11H149.5V18.5Z" fill="#C4C4C4"/>
<path d="M148 78.5L136 97.5H135H134.5L133.5 95.5H129.5V94H124.5L124 88L128 81V78.5L122.5 72L124 71L129.5 67L131.5 63.5L130.5 56.5L153.5 57L153 51.5H155H160V56.5V63.5L158 67L155 72L148 78.5Z" fill="#C4C4C4"/>
<path d="M125.5 69.5L123 71.5L119.5 70.5L116 71.5L113 74L105 82V85L108.5 91.5H106L101.5 94H87L77 84L82 73L86 61.5L95.5 59.5L98 57L101.5 51L105 52L108.5 51H110.5H113L116 52H119.5L125.5 53.5L128 55L130 58V61.5V65L128 68L125.5 69.5Z" fill="#C4C4C4"/>
<path d="M106.5 88L108 90.5H109V93.5H113.5L117 88H124L125 85.5L126.5 82L128.5 80.5V78.5L125 74.5L123 72.5L119.5 71L115.5 72L112 74.5L108 78.5L105 82V84.5L106.5 88Z" fill="#C4C4C4"/>
<path d="M63 32.5L62 36.5L63 42H66.5L67.5 48.5L72 51.5L73.5 56.5L75 59.5L78.5 62L81 65L82.5 70.5L84 66L85.5 62L89 61L95.5 59.5L98 57L99.5 54L101 51L105 52L108.5 51C108.667 50.5 108.9 49.3 108.5 48.5C108.1 47.7 107.667 45.5 107.5 44.5V41L109 39H112L114 35.5L116.5 33L116 31H110L105.5 30L99 28.5L95.5 26.5H91L90 30V34L89 37.5L87 39H82.5L76.5 37.5L71.5 35.5L69.5 33L67.5 32.5H63Z" fill="#C4C4C4"/>
<path d="M6 89L9.5 97.5H13.5V95L17 95.5V91.5H19L20.5 93.5L22.5 95.5V104.5H26V110H28.5V117.5L32 111.5H36V114H34.5V117.5H36V120H42V117.5H44.5V115.5H46.5V114H48.5V111.5H53.5V108L57 106.5L59.5 108H65.5V106.5H77L87 100V93.5L77 83.5L79.5 78L81.5 73V67L80.5 63.5L77 61.5L74 58L72.5 51.5L69.5 50.5L67 48V42H63.5L61 36.5L59.5 42L50.5 51.5H42L39.5 50.5V46.5L42 44.5V38L39.5 36.5L37.5 32.5L36 30.5L34.5 27.5V69H32L28.5 71L26 73H19H12.5L9.5 71L6 67L4.5 63.5H3L0.5 67L2 75V79L4.5 83.5L6 89Z" fill="#C4C4C4"/>
<path d="M76.5 133.5H69.5V127H61V124L64 123V119.5L67.5 118.5V114L72.5 112.5L76.5 110V106.5L83 101.5L88 101V94H101L106 91.5H109.5V93.5H113.5L117 87.5H124.5V93.5H130V95.5H133.5V97L136 98.5L102 130.5H91V133.5H82V136H76.5V133.5Z" fill="#FF5722"/>
<path d="M76.5 133.5H69.5V127H61V124L64 123V119.5L67.5 118.5V114L72.5 112.5L76.5 110V106.5L83 101.5L88 101V94H101L106 91.5H109.5V93.5H113.5L117 87.5H124.5V93.5H130V95.5H133.5V97L136 98.5L102 130.5H91V133.5H82V136H76.5V133.5Z" fill="url(#paint0_linear)"/>
<path d="M35.5 143H28.5L21 139.5V136H15.5L16 128L11.5 123V119.5H15.5V106.5H13.5V103H11.5V101H10V97H13.5V95.5H17V93.5V91.5H19V93.5H21V95.5H23V104.5H25V108.5V110.5H28.5V117L30 115.5L31.5 113.5V112H33.5H35.5V114H33.5V117L35.5 117.5V121H41.5V117.5H44.5V115.5H46.5V114L48.5 113.5L48 112L54 111.5V108.5H56V106.5H60V108.5H65.5V106.5H74.5V108.5V111.5H73V114H67.5V119.5H63V123H61.5V127H69V134H67.5V136H63V134H61.5H56V136H52.5V138V139.5H47.5H41.5H37.5V141.5H35.5V143Z" fill="#C4C4C4"/>
<path d="M91.3906 107.7H89.2339V109.463H91.7393V110H88.5776V105.023H91.7051V105.563H89.2339V107.163H91.3906V107.7ZM94.7402 110C94.7038 109.927 94.6742 109.797 94.6514 109.61C94.3574 109.916 94.0065 110.068 93.5986 110.068C93.234 110.068 92.9344 109.966 92.6997 109.761C92.4673 109.553 92.3511 109.291 92.3511 108.975C92.3511 108.59 92.4969 108.291 92.7886 108.079C93.0825 107.865 93.495 107.758 94.0259 107.758H94.6411V107.467C94.6411 107.246 94.575 107.071 94.4429 106.941C94.3107 106.809 94.1159 106.743 93.8584 106.743C93.6328 106.743 93.4437 106.8 93.291 106.914C93.1383 107.028 93.062 107.165 93.062 107.327H92.4263C92.4263 107.143 92.4912 106.965 92.6211 106.794C92.7533 106.621 92.931 106.484 93.1543 106.384C93.3799 106.284 93.6271 106.233 93.896 106.233C94.3221 106.233 94.6559 106.34 94.8975 106.555C95.139 106.767 95.2643 107.059 95.2734 107.433V109.135C95.2734 109.475 95.3167 109.745 95.4033 109.945V110H94.7402ZM93.6909 109.518C93.8892 109.518 94.0771 109.467 94.2549 109.364C94.4326 109.262 94.5614 109.128 94.6411 108.964V108.206H94.1455C93.3708 108.206 92.9834 108.432 92.9834 108.886C92.9834 109.084 93.0495 109.239 93.1816 109.351C93.3138 109.462 93.4836 109.518 93.6909 109.518ZM98.418 109.019C98.418 108.848 98.353 108.716 98.2231 108.623C98.0955 108.527 97.8711 108.445 97.5498 108.376C97.2308 108.308 96.9767 108.226 96.7876 108.13C96.6007 108.035 96.4618 107.921 96.3706 107.789C96.2817 107.656 96.2373 107.499 96.2373 107.317C96.2373 107.014 96.3649 106.757 96.6201 106.548C96.8776 106.338 97.2057 106.233 97.6045 106.233C98.0238 106.233 98.3633 106.342 98.623 106.558C98.8851 106.775 99.0161 107.051 99.0161 107.389H98.3804C98.3804 107.215 98.3063 107.066 98.1582 106.941C98.0124 106.816 97.8278 106.753 97.6045 106.753C97.3743 106.753 97.1943 106.803 97.0645 106.903C96.9346 107.004 96.8696 107.135 96.8696 107.296C96.8696 107.449 96.93 107.564 97.0508 107.642C97.1715 107.719 97.3892 107.793 97.7036 107.864C98.0203 107.934 98.2767 108.019 98.4727 108.117C98.6686 108.215 98.8133 108.333 98.9067 108.472C99.0024 108.609 99.0503 108.776 99.0503 108.975C99.0503 109.305 98.9181 109.57 98.6538 109.771C98.3895 109.969 98.0465 110.068 97.625 110.068C97.3288 110.068 97.0667 110.016 96.8389 109.911C96.611 109.806 96.4321 109.66 96.3022 109.474C96.1746 109.285 96.1108 109.081 96.1108 108.862H96.7432C96.7546 109.074 96.8389 109.242 96.9961 109.368C97.1556 109.491 97.3652 109.552 97.625 109.552C97.8643 109.552 98.0557 109.504 98.1992 109.409C98.3451 109.311 98.418 109.181 98.418 109.019ZM100.732 105.406V106.302H101.422V106.791H100.732V109.084C100.732 109.232 100.763 109.344 100.824 109.419C100.886 109.492 100.991 109.528 101.139 109.528C101.212 109.528 101.312 109.515 101.439 109.487V110C101.273 110.046 101.111 110.068 100.954 110.068C100.672 110.068 100.458 109.983 100.315 109.812C100.171 109.641 100.1 109.398 100.1 109.084V106.791H99.4263V106.302H100.1V105.406H100.732ZM103.699 110.068C103.197 110.068 102.79 109.904 102.475 109.576C102.161 109.246 102.003 108.805 102.003 108.253V108.137C102.003 107.77 102.073 107.443 102.212 107.156C102.353 106.867 102.549 106.641 102.8 106.479C103.053 106.315 103.326 106.233 103.62 106.233C104.101 106.233 104.475 106.392 104.741 106.708C105.008 107.025 105.141 107.479 105.141 108.069V108.332H102.636C102.645 108.697 102.751 108.992 102.954 109.217C103.159 109.441 103.418 109.552 103.733 109.552C103.956 109.552 104.145 109.507 104.3 109.416C104.455 109.324 104.591 109.204 104.707 109.053L105.093 109.354C104.783 109.83 104.319 110.068 103.699 110.068ZM103.62 106.753C103.365 106.753 103.151 106.846 102.978 107.033C102.804 107.218 102.697 107.478 102.656 107.812H104.509V107.765C104.491 107.443 104.404 107.195 104.249 107.02C104.094 106.842 103.884 106.753 103.62 106.753ZM107.664 106.869C107.568 106.853 107.464 106.845 107.353 106.845C106.938 106.845 106.656 107.022 106.508 107.375V110H105.876V106.302H106.491L106.501 106.729C106.709 106.399 107.003 106.233 107.383 106.233C107.506 106.233 107.6 106.249 107.664 106.281V106.869ZM108.846 106.302L108.867 106.767C109.149 106.411 109.518 106.233 109.974 106.233C110.756 106.233 111.15 106.674 111.157 107.556V110H110.524V107.553C110.522 107.286 110.461 107.089 110.34 106.961C110.221 106.834 110.036 106.77 109.783 106.77C109.578 106.77 109.398 106.825 109.243 106.934C109.088 107.043 108.967 107.187 108.88 107.365V110H108.248V106.302H108.846ZM92.2383 116.421C92.1768 116.947 91.9819 117.354 91.6538 117.641C91.328 117.926 90.8939 118.068 90.3516 118.068C89.7637 118.068 89.292 117.858 88.9365 117.436C88.5833 117.014 88.4067 116.451 88.4067 115.744V115.266C88.4067 114.803 88.4888 114.396 88.6528 114.045C88.8192 113.694 89.0539 113.426 89.3569 113.239C89.66 113.05 90.0109 112.955 90.4097 112.955C90.9383 112.955 91.3621 113.103 91.6812 113.399C92.0002 113.693 92.1859 114.101 92.2383 114.623H91.5786C91.5216 114.227 91.3975 113.939 91.2061 113.762C91.0169 113.584 90.7515 113.495 90.4097 113.495C89.9904 113.495 89.6611 113.65 89.4219 113.96C89.1849 114.27 89.0664 114.711 89.0664 115.283V115.765C89.0664 116.305 89.1792 116.734 89.4048 117.053C89.6304 117.372 89.946 117.532 90.3516 117.532C90.7161 117.532 90.9953 117.45 91.189 117.286C91.3849 117.119 91.5148 116.831 91.5786 116.421H92.2383ZM95.3213 118C95.2848 117.927 95.2552 117.797 95.2324 117.61C94.9385 117.916 94.5876 118.068 94.1797 118.068C93.8151 118.068 93.5155 117.966 93.2808 117.761C93.0483 117.553 92.9321 117.291 92.9321 116.975C92.9321 116.59 93.078 116.291 93.3696 116.079C93.6636 115.865 94.076 115.758 94.6069 115.758H95.2222V115.467C95.2222 115.246 95.1561 115.071 95.0239 114.941C94.8918 114.809 94.6969 114.743 94.4395 114.743C94.2139 114.743 94.0247 114.8 93.8721 114.914C93.7194 115.028 93.6431 115.165 93.6431 115.327H93.0073C93.0073 115.143 93.0723 114.965 93.2021 114.794C93.3343 114.621 93.512 114.484 93.7354 114.384C93.9609 114.284 94.2082 114.233 94.4771 114.233C94.9032 114.233 95.237 114.34 95.4785 114.555C95.7201 114.767 95.8454 115.059 95.8545 115.433V117.135C95.8545 117.475 95.8978 117.745 95.9844 117.945V118H95.3213ZM94.272 117.518C94.4702 117.518 94.6582 117.467 94.8359 117.364C95.0137 117.262 95.1424 117.128 95.2222 116.964V116.206H94.7266C93.9518 116.206 93.5645 116.432 93.5645 116.886C93.5645 117.084 93.6305 117.239 93.7627 117.351C93.8949 117.462 94.0646 117.518 94.272 117.518ZM99.9697 116.192C99.9697 116.755 99.841 117.208 99.5835 117.552C99.326 117.896 98.9774 118.068 98.5376 118.068C98.0887 118.068 97.7355 117.926 97.478 117.641V119.422H96.8457V114.302H97.4233L97.4541 114.712C97.7116 114.393 98.0693 114.233 98.5273 114.233C98.9717 114.233 99.3226 114.401 99.5801 114.736C99.8398 115.071 99.9697 115.537 99.9697 116.134V116.192ZM99.3374 116.12C99.3374 115.703 99.2485 115.374 99.0708 115.132C98.8931 114.891 98.6493 114.77 98.3394 114.77C97.9565 114.77 97.6694 114.94 97.478 115.279V117.046C97.6672 117.384 97.9565 117.552 98.3462 117.552C98.6493 117.552 98.8896 117.433 99.0674 117.193C99.2474 116.952 99.3374 116.594 99.3374 116.12ZM102.311 118.068C101.81 118.068 101.402 117.904 101.087 117.576C100.773 117.246 100.616 116.805 100.616 116.253V116.137C100.616 115.77 100.685 115.443 100.824 115.156C100.965 114.867 101.161 114.641 101.412 114.479C101.665 114.315 101.938 114.233 102.232 114.233C102.713 114.233 103.087 114.392 103.354 114.708C103.62 115.025 103.753 115.479 103.753 116.069V116.332H101.248C101.257 116.697 101.363 116.992 101.566 117.217C101.771 117.441 102.031 117.552 102.345 117.552C102.569 117.552 102.758 117.507 102.913 117.416C103.068 117.324 103.203 117.204 103.319 117.053L103.706 117.354C103.396 117.83 102.931 118.068 102.311 118.068ZM102.232 114.753C101.977 114.753 101.763 114.846 101.59 115.033C101.417 115.218 101.31 115.478 101.269 115.812H103.121V115.765C103.103 115.443 103.016 115.195 102.861 115.02C102.706 114.842 102.497 114.753 102.232 114.753Z" fill="white"/>
<defs>
<linearGradient id="paint0_linear" x1="98.5" y1="87.5" x2="98.5" y2="136" gradientUnits="userSpaceOnUse">
<stop stop-color="#FF5722"/>
<stop offset="1" stop-color="#424242"/>
</linearGradient>
</defs>
</svg>
