<svg width="160" height="143" viewBox="0 0 160 143" fill="none" xmlns="http://www.w3.org/2000/svg">
<rect x="22" y="78" width="83" height="46" fill="#C4C4C4"/>
<path d="M158.5 58.5L132.5 99L69.5 132.5L29 124L12 92L96.5 32L105.5 21.5L145.5 11.5L149.5 21.5L145.5 32L135.5 55H152.5L158.5 58.5Z" fill="#C4C4C4"/>
<rect x="58" y="41" width="78" height="50" fill="#C4C4C4"/>
<path d="M144 55H146.5L147 56H134.5L130 57L126 54L120 51.5L119.5 49.5L120.5 47L122.5 45.5L119.5 42.5L122.5 42L124 38.5V34.5H127.5H133V31.5H135L134.5 29H140V26L143.5 25L144 19.5H151L153.5 22V40.5H150L149 38.5H145.5L143.5 41.5L140 47L142 52L144 55Z" fill="#C4C4C4"/>
<path d="M122 29L124 30.5V38.5L122.5 41.5L119.5 43L122.5 45.5L121 46.5L119.5 49.5V52L116.5 52.5L114 51H109L108.5 49.5L107 43L108.5 39L112 38.5L116.5 33.5V31L117 30.5L120 29H122Z" fill="#C4C4C4"/>
<path d="M149.5 18.5L151.5 19L144 19.5L143 25.5L140.5 26L139.5 29H134.5V31.5H132.5L132 34.5L123.5 34V30L120.5 29L115 31H108.5L97.5 27L102 22V17L104 15.5H105.5V12.5H108.5V11H110.5V9H112.5V7H115V3H122V0H133.5L134.5 1.5H145V5.5H148V11H149.5V18.5Z" fill="#C4C4C4"/>
<path d="M148 78.5L136 97.5H135H134.5L133.5 95.5H129.5V94H124.5L124 88L128 81V78.5L122.5 72L124 71L129.5 67L131.5 63.5L130.5 56.5L150.5 54L153 51.5H155H160V56.5V63.5L158 67L155 72L148 78.5Z" fill="#FF5722"/>
<path d="M148 78.5L136 97.5H135H134.5L133.5 95.5H129.5V94H124.5L124 88L128 81V78.5L122.5 72L124 71L129.5 67L131.5 63.5L130.5 56.5L150.5 54L153 51.5H155H160V56.5V63.5L158 67L155 72L148 78.5Z" fill="url(#paint0_linear)"/>
<path d="M125.5 69.5L123 71.5L119.5 70.5L116 71.5L113 74L105 82V85L108.5 91.5H106L101.5 94H87L77 84L82 73L86 61.5L95.5 59.5L98 57L101.5 51L105 52L108.5 51H110.5H113L116 52H119.5L125.5 53.5L128 55L130 58V61.5V65L128 68L125.5 69.5Z" fill="#C4C4C4"/>
<path d="M106.5 88L108 90.5H109V93.5H113.5L117 88H124L125 85.5L126.5 82L128.5 80.5V78.5L125 74.5L123 72.5L119.5 71L115.5 72L112 74.5L108 78.5L105 82V84.5L106.5 88Z" fill="#C4C4C4"/>
<path d="M63 32.5L62 36.5L63 42H66.5L67.5 48.5L72 51.5L73.5 56.5L75 59.5L78.5 62L81 65L82.5 70.5L84 66L85.5 62L89 61L95.5 59.5L98 57L99.5 54L101 51L105 52L108.5 51C108.667 50.5 108.9 49.3 108.5 48.5C108.1 47.7 107.667 45.5 107.5 44.5V41L109 39H112L114 35.5L116.5 33L116 31H110L105.5 30L99 28.5L95.5 26.5H91L90 30V34L89 37.5L87 39H82.5L76.5 37.5L71.5 35.5L69.5 33L67.5 32.5H63Z" fill="#C4C4C4"/>
<path d="M6 89L9.5 97.5H13.5V95L17 95.5V91.5H19L20.5 93.5L22.5 95.5V104.5H26V110H28.5V117.5L32 111.5H36V114H34.5V117.5H36V120H42V117.5H44.5V115.5H46.5V114H48.5V111.5H53.5V108L57 106.5L59.5 108H65.5V106.5H77L87 100V93.5L77 83.5L79.5 78L81.5 73V67L80.5 63.5L77 61.5L74 58L72.5 51.5L69.5 50.5L67 48V42H63.5L61 36.5L59.5 42L50.5 51.5H42L39.5 50.5V46.5L42 44.5V38L39.5 36.5L37.5 32.5L36 30.5L34.5 27.5V69H32L28.5 71L26 73H19H12.5L9.5 71L6 67L4.5 63.5H3L0.5 67L2 75V79L4.5 83.5L6 89Z" fill="#C4C4C4"/>
<path d="M76.5 133.5H69.5V127H61V124L64 123V119.5L67.5 118.5V114L72.5 112.5L76.5 110V106.5L83 101.5L88 101V94H101L106 91.5H109.5V93.5H113.5L117 87.5H124.5V93.5H130V95.5H133.5V97L136 98.5L102 130.5H91V133.5H82V136H76.5V133.5Z" fill="#C4C4C4"/>
<path d="M35.5 143H28.5L21 139.5V136H15.5L16 128L11.5 123V119.5H15.5V106.5H13.5V103H11.5V101H10V97H13.5V95.5H17V93.5V91.5H19V93.5H21V95.5H23V104.5H25V108.5V110.5H28.5V117L30 115.5L31.5 113.5V112H33.5H35.5V114H33.5V117L35.5 117.5V121H41.5V117.5H44.5V115.5H46.5V114L48.5 113.5L48 112L54 111.5V108.5H56V106.5H60V108.5H65.5V106.5H74.5V108.5V111.5H73V114H67.5V119.5H63V123H61.5V127H69V134H67.5V136H63V134H61.5H56V136H52.5V138V139.5H47.5H41.5H37.5V141.5H35.5V143Z" fill="#C4C4C4"/>
<path d="M132.842 67.686L132.234 68.3184V70H131.578V65.0234H132.234V67.4844L134.445 65.0234H135.238L133.28 67.2212L135.392 70H134.606L132.842 67.686ZM138.923 69.1284L139.634 66.3018H140.266L139.189 70H138.677L137.778 67.1973L136.903 70H136.39L135.317 66.3018H135.946L136.674 69.0703L137.535 66.3018H138.044L138.923 69.1284ZM143.195 70C143.159 69.9271 143.129 69.7972 143.106 69.6104C142.812 69.9157 142.462 70.0684 142.054 70.0684C141.689 70.0684 141.389 69.9658 141.155 69.7607C140.922 69.5534 140.806 69.2913 140.806 68.9746C140.806 68.5895 140.952 68.291 141.244 68.0791C141.538 67.8649 141.95 67.7578 142.481 67.7578H143.096V67.4673C143.096 67.2463 143.03 67.0708 142.898 66.9409C142.766 66.8088 142.571 66.7427 142.313 66.7427C142.088 66.7427 141.899 66.7996 141.746 66.9136C141.593 67.0275 141.517 67.1654 141.517 67.3271H140.881C140.881 67.1426 140.946 66.9648 141.076 66.7939C141.208 66.6208 141.386 66.484 141.609 66.3838C141.835 66.2835 142.082 66.2334 142.351 66.2334C142.777 66.2334 143.111 66.3405 143.353 66.5547C143.594 66.7666 143.719 67.0594 143.729 67.4331V69.1353C143.729 69.4748 143.772 69.7448 143.858 69.9453V70H143.195ZM142.146 69.5181C142.344 69.5181 142.532 69.4668 142.71 69.3643C142.888 69.2617 143.016 69.1284 143.096 68.9644V68.2056H142.601C141.826 68.2056 141.438 68.4323 141.438 68.8857C141.438 69.084 141.505 69.2389 141.637 69.3506C141.769 69.4622 141.939 69.5181 142.146 69.5181ZM146.036 68.144H144.368V67.6279H146.036V68.144ZM147.249 69.4839H149.413V70H146.477V69.5352L148.517 66.8247H146.507V66.3018H149.31V66.7495L147.249 69.4839ZM152.41 69.6343C152.164 69.9237 151.803 70.0684 151.327 70.0684C150.932 70.0684 150.632 69.9544 150.424 69.7266C150.219 69.4964 150.116 69.1569 150.113 68.708V66.3018H150.746V68.6909C150.746 69.2515 150.973 69.5317 151.429 69.5317C151.912 69.5317 152.234 69.3517 152.393 68.9917V66.3018H153.025V70H152.424L152.41 69.6343ZM154.676 70H154.044V64.75H154.676V70ZM157.975 69.6343C157.729 69.9237 157.367 70.0684 156.891 70.0684C156.497 70.0684 156.196 69.9544 155.989 69.7266C155.784 69.4964 155.68 69.1569 155.678 68.708V66.3018H156.31V68.6909C156.31 69.2515 156.538 69.5317 156.994 69.5317C157.477 69.5317 157.798 69.3517 157.958 68.9917V66.3018H158.59V70H157.988L157.975 69.6343ZM135.402 78H134.743L132.237 74.165V78H131.578V73.0234H132.237L134.75 76.8755V73.0234H135.402V78ZM138.752 78C138.715 77.9271 138.686 77.7972 138.663 77.6104C138.369 77.9157 138.018 78.0684 137.61 78.0684C137.246 78.0684 136.946 77.9658 136.711 77.7607C136.479 77.5534 136.363 77.2913 136.363 76.9746C136.363 76.5895 136.509 76.291 136.8 76.0791C137.094 75.8649 137.507 75.7578 138.038 75.7578H138.653V75.4673C138.653 75.2463 138.587 75.0708 138.455 74.9409C138.322 74.8088 138.128 74.7427 137.87 74.7427C137.645 74.7427 137.455 74.7996 137.303 74.9136C137.15 75.0275 137.074 75.1654 137.074 75.3271H136.438C136.438 75.1426 136.503 74.9648 136.633 74.7939C136.765 74.6208 136.943 74.484 137.166 74.3838C137.392 74.2835 137.639 74.2334 137.908 74.2334C138.334 74.2334 138.668 74.3405 138.909 74.5547C139.151 74.7666 139.276 75.0594 139.285 75.4331V77.1353C139.285 77.4748 139.328 77.7448 139.415 77.9453V78H138.752ZM137.703 77.5181C137.901 77.5181 138.089 77.4668 138.267 77.3643C138.444 77.2617 138.573 77.1284 138.653 76.9644V76.2056H138.157C137.382 76.2056 136.995 76.4323 136.995 76.8857C136.995 77.084 137.061 77.2389 137.193 77.3506C137.326 77.4622 137.495 77.5181 137.703 77.5181ZM141.134 73.4062V74.3018H141.825V74.7905H141.134V77.084C141.134 77.2321 141.165 77.3438 141.227 77.4189C141.288 77.4919 141.393 77.5283 141.541 77.5283C141.614 77.5283 141.714 77.5146 141.842 77.4873V78C141.675 78.0456 141.514 78.0684 141.356 78.0684C141.074 78.0684 140.861 77.9829 140.717 77.812C140.574 77.6411 140.502 77.3984 140.502 77.084V74.7905H139.829V74.3018H140.502V73.4062H141.134ZM144.85 78C144.813 77.9271 144.784 77.7972 144.761 77.6104C144.467 77.9157 144.116 78.0684 143.708 78.0684C143.343 78.0684 143.044 77.9658 142.809 77.7607C142.577 77.5534 142.46 77.2913 142.46 76.9746C142.46 76.5895 142.606 76.291 142.898 76.0791C143.192 75.8649 143.604 75.7578 144.135 75.7578H144.75V75.4673C144.75 75.2463 144.684 75.0708 144.552 74.9409C144.42 74.8088 144.225 74.7427 143.968 74.7427C143.742 74.7427 143.553 74.7996 143.4 74.9136C143.248 75.0275 143.171 75.1654 143.171 75.3271H142.536C142.536 75.1426 142.601 74.9648 142.73 74.7939C142.863 74.6208 143.04 74.484 143.264 74.3838C143.489 74.2835 143.736 74.2334 144.005 74.2334C144.431 74.2334 144.765 74.3405 145.007 74.5547C145.248 74.7666 145.374 75.0594 145.383 75.4331V77.1353C145.383 77.4748 145.426 77.7448 145.513 77.9453V78H144.85ZM143.8 77.5181C143.999 77.5181 144.187 77.4668 144.364 77.3643C144.542 77.2617 144.671 77.1284 144.75 76.9644V76.2056H144.255C143.48 76.2056 143.093 76.4323 143.093 76.8857C143.093 77.084 143.159 77.2389 143.291 77.3506C143.423 77.4622 143.593 77.5181 143.8 77.5181ZM147.061 78H146.429V72.75H147.061V78Z" fill="white"/>
<defs>
<linearGradient id="paint0_linear" x1="141.25" y1="51.5" x2="141.25" y2="97.5" gradientUnits="userSpaceOnUse">
<stop stop-color="#FF5722"/>
<stop offset="1" stop-color="#424242"/>
</linearGradient>
</defs>
</svg>
