<svg width="160" height="143" viewBox="0 0 160 143" fill="none" xmlns="http://www.w3.org/2000/svg">
<rect x="22" y="78" width="83" height="46" fill="#C4C4C4"/>
<path d="M158.5 58.5L132.5 99L69.5 132.5L29 124L12 92L96.5 32L105.5 21.5L145.5 11.5L149.5 21.5L145.5 32L135.5 55H152.5L158.5 58.5Z" fill="#C4C4C4"/>
<rect x="58" y="41" width="78" height="50" fill="#C4C4C4"/>
<path d="M144 55H146.5L147 56H134.5L130 57L126 54L120 51.5L119.5 49.5L120.5 47L122.5 45.5L119.5 42.5L122.5 42L124 38.5V34.5H127.5H133V31.5H135L134.5 29H140V26L143.5 25L144 19.5H151L153.5 22V40.5H150L149 38.5H145.5L143.5 41.5L140 47L142 52L144 55Z" fill="#C4C4C4"/>
<path d="M122 29L124 30.5V38.5L122.5 41.5L119.5 43L122.5 45.5L121 46.5L119.5 49.5V52L116.5 52.5L114 51H109L108.5 49.5L107 43L108.5 39L112 38.5L116.5 33.5V31L117 30.5L120 29H122Z" fill="#C4C4C4"/>
<path d="M149.5 18.5L151.5 19L144 19.5L143 25.5L140.5 26L139.5 29H134.5V31.5H132.5L132 34.5L123.5 34V30L120.5 29L115 31H108.5L97.5 27L102 22V17L104 15.5H105.5V12.5H108.5V11H110.5V9H112.5V7H115V3H122V0H133.5L134.5 1.5H145V5.5H148V11H149.5V18.5Z" fill="#FF5722"/>
<path d="M149.5 18.5L151.5 19L144 19.5L143 25.5L140.5 26L139.5 29H134.5V31.5H132.5L132 34.5L123.5 34V30L120.5 29L115 31H108.5L97.5 27L102 22V17L104 15.5H105.5V12.5H108.5V11H110.5V9H112.5V7H115V3H122V0H133.5L134.5 1.5H145V5.5H148V11H149.5V18.5Z" fill="url(#paint0_linear)"/>
<path d="M148 78.5L136 97.5H135H134.5L133.5 95.5H129.5V94H124.5L124 88L128 81V78.5L122.5 72L124 71L129.5 67L131.5 63.5L130.5 56.5L150.5 54L153 51.5H155H160V56.5V63.5L158 67L155 72L148 78.5Z" fill="#C4C4C4"/>
<path d="M125.5 69.5L123 71.5L119.5 70.5L116 71.5L113 74L105 82V85L108.5 91.5H106L101.5 94H87L77 84L82 73L86 61.5L95.5 59.5L98 57L101.5 51L105 52L108.5 51H110.5H113L116 52H119.5L125.5 53.5L128 55L130 58V61.5V65L128 68L125.5 69.5Z" fill="#C4C4C4"/>
<path d="M106.5 88L108 90.5H109V93.5H113.5L117 88H124L125 85.5L126.5 82L128.5 80.5V78.5L125 74.5L123 72.5L119.5 71L115.5 72L112 74.5L108 78.5L105 82V84.5L106.5 88Z" fill="#C4C4C4"/>
<path d="M63 32.5L62 36.5L63 42H66.5L67.5 48.5L72 51.5L73.5 56.5L75 59.5L78.5 62L81 65L82.5 70.5L84 66L85.5 62L89 61L95.5 59.5L98 57L99.5 54L101 51L105 52L108.5 51C108.667 50.5 108.9 49.3 108.5 48.5C108.1 47.7 107.667 45.5 107.5 44.5V41L109 39H112L114 35.5L116.5 33L116 31H110L105.5 30L99 28.5L95.5 26.5H91L90 30V34L89 37.5L87 39H82.5L76.5 37.5L71.5 35.5L69.5 33L67.5 32.5H63Z" fill="#C4C4C4"/>
<path d="M6 89L9.5 97.5H13.5V95L17 95.5V91.5H19L20.5 93.5L22.5 95.5V104.5H26V110H28.5V117.5L32 111.5H36V114H34.5V117.5H36V120H42V117.5H44.5V115.5H46.5V114H48.5V111.5H53.5V108L57 106.5L59.5 108H65.5V106.5H77L87 100V93.5L77 83.5L79.5 78L81.5 73V67L80.5 63.5L77 61.5L74 58L72.5 51.5L69.5 50.5L67 48V42H63.5L61 36.5L59.5 42L50.5 51.5H42L39.5 50.5V46.5L42 44.5V38L39.5 36.5L37.5 32.5L36 30.5L34.5 27.5V69H32L28.5 71L26 73H19H12.5L9.5 71L6 67L4.5 63.5H3L0.5 67L2 75V79L4.5 83.5L6 89Z" fill="#C4C4C4"/>
<path d="M76.5 133.5H69.5V127H61V124L64 123V119.5L67.5 118.5V114L72.5 112.5L76.5 110V106.5L83 101.5L88 101V94H101L106 91.5H109.5V93.5H113.5L117 87.5H124.5V93.5H130V95.5H133.5V97L136 98.5L102 130.5H91V133.5H82V136H76.5V133.5Z" fill="#C4C4C4"/>
<path d="M35.5 143H28.5L21 139.5V136H15.5L16 128L11.5 123V119.5H15.5V106.5H13.5V103H11.5V101H10V97H13.5V95.5H17V93.5V91.5H19V93.5H21V95.5H23V104.5H25V108.5V110.5H28.5V117L30 115.5L31.5 113.5V112H33.5H35.5V114H33.5V117L35.5 117.5V121H41.5V117.5H44.5V115.5H46.5V114L48.5 113.5L48 112L54 111.5V108.5H56V106.5H60V108.5H65.5V106.5H74.5V108.5V111.5H73V114H67.5V119.5H63V123H61.5V127H69V134H67.5V136H63V134H61.5H56V136H52.5V138V139.5H47.5H41.5H37.5V141.5H35.5V143Z" fill="#C4C4C4"/>
<path d="M116.53 14.5323L118.883 14.6859L118.848 15.2213L115.837 15.0249L116.161 10.0589L116.819 10.1018L116.53 14.5323ZM120.182 15.3083L119.551 15.2672L119.792 11.5768L120.423 11.6179L120.182 15.3083ZM119.804 10.5946C119.811 10.4922 119.847 10.4078 119.913 10.3413C119.982 10.275 120.077 10.2458 120.2 10.2539C120.323 10.2619 120.414 10.3032 120.473 10.3778C120.532 10.4525 120.558 10.541 120.551 10.6433C120.545 10.7456 120.507 10.8288 120.439 10.8929C120.371 10.9569 120.276 10.9849 120.153 10.9769C120.03 10.9689 119.939 10.9287 119.88 10.8564C119.823 10.7841 119.798 10.6969 119.804 10.5946ZM122.029 11.7227L122.02 12.1331C122.311 11.8324 122.686 11.6971 123.146 11.727C123.662 11.7607 124 11.9814 124.161 12.3893C124.295 12.2199 124.464 12.087 124.666 11.9907C124.871 11.8944 125.108 11.855 125.376 11.8725C126.186 11.9254 126.569 12.3808 126.527 13.2389L126.366 15.7117L125.735 15.6705L125.894 13.2353C125.911 12.9715 125.863 12.7709 125.751 12.6334C125.639 12.4937 125.441 12.4146 125.157 12.396C124.923 12.3807 124.724 12.4385 124.56 12.5694C124.396 12.6981 124.294 12.8798 124.254 13.1146L124.094 15.5635L123.46 15.5221L123.617 13.1039C123.652 12.5673 123.407 12.2819 122.882 12.2476C122.468 12.2206 122.174 12.3784 121.998 12.7209L121.823 15.4153L121.192 15.3742L121.432 11.6838L122.029 11.7227ZM130.556 14.1731C130.519 14.7347 130.361 15.1788 130.082 15.5054C129.802 15.832 129.443 15.981 129.005 15.9523C128.557 15.9231 128.213 15.758 127.975 15.457L127.859 17.234L127.228 17.1929L127.561 12.0836L128.138 12.1212L128.142 12.5325C128.42 12.2309 128.787 12.095 129.244 12.1249C129.687 12.1538 130.027 12.3437 130.262 12.6948C130.499 13.0459 130.598 13.5194 130.56 14.1151L130.556 14.1731ZM129.929 14.0603C129.957 13.6442 129.889 13.3098 129.728 13.0572C129.566 12.8047 129.331 12.6683 129.021 12.6481C128.639 12.6232 128.342 12.7739 128.129 13.1002L128.014 14.8636C128.181 15.2124 128.458 15.3995 128.847 15.4249C129.15 15.4446 129.397 15.3409 129.59 15.1137C129.786 14.8844 129.899 14.5333 129.929 14.0603ZM131.198 14.1397C131.222 13.7781 131.314 13.4576 131.474 13.178C131.636 12.8986 131.848 12.6886 132.111 12.5482C132.376 12.4079 132.671 12.3484 132.996 12.3696C133.498 12.4024 133.893 12.6028 134.179 12.9709C134.468 13.3391 134.594 13.812 134.556 14.3895L134.553 14.4338C134.53 14.7931 134.439 15.1115 134.282 15.3889C134.127 15.6642 133.916 15.8731 133.648 16.0155C133.383 16.1581 133.085 16.2185 132.753 16.1969C132.253 16.1642 131.858 15.9638 131.569 15.5956C131.283 15.2275 131.158 14.757 131.196 14.184L131.198 14.1397ZM131.828 14.2561C131.801 14.6654 131.874 15.0001 132.047 15.2602C132.222 15.5205 132.468 15.6611 132.787 15.6818C133.107 15.7028 133.37 15.5943 133.575 15.3565C133.78 15.1164 133.898 14.7701 133.927 14.3176C133.953 13.9129 133.878 13.5792 133.701 13.3164C133.527 13.0516 133.28 12.9088 132.962 12.888C132.65 12.8677 132.391 12.9752 132.184 13.2106C131.977 13.446 131.858 13.7945 131.828 14.2561ZM138.462 14.6888C138.425 15.2505 138.267 15.6946 137.988 16.0211C137.709 16.3477 137.349 16.4967 136.911 16.4681C136.463 16.4389 136.119 16.2738 135.881 15.9728L135.765 17.7498L135.134 17.7086L135.467 12.5993L136.044 12.6369L136.048 13.0482C136.326 12.7467 136.693 12.6108 137.15 12.6406C137.593 12.6695 137.933 12.8595 138.168 13.2105C138.405 13.5616 138.504 14.0351 138.466 14.6308L138.462 14.6888ZM137.836 14.576C137.863 14.1599 137.795 13.8256 137.634 13.573C137.472 13.3204 137.237 13.184 136.927 13.1638C136.545 13.1389 136.248 13.2896 136.035 13.616L135.92 15.3793C136.087 15.7281 136.364 15.9152 136.753 15.9406C137.056 15.9603 137.303 15.8566 137.496 15.6294C137.692 15.4001 137.805 15.049 137.836 14.576ZM139.105 14.6554C139.128 14.2939 139.22 13.9733 139.38 13.6937C139.542 13.4143 139.754 13.2044 140.017 13.0639C140.282 12.9236 140.577 12.8641 140.902 12.8853C141.404 12.9181 141.799 13.1185 142.085 13.4866C142.374 13.8548 142.5 14.3277 142.462 14.9052L142.459 14.9496C142.436 15.3088 142.345 15.6272 142.188 15.9046C142.033 16.18 141.822 16.3888 141.555 16.5312C141.289 16.6738 140.991 16.7343 140.659 16.7126C140.159 16.68 139.764 16.4795 139.475 16.1113C139.189 15.7433 139.064 15.2727 139.102 14.6997L139.105 14.6554ZM139.734 14.7718C139.707 15.1811 139.78 15.5158 139.953 15.776C140.128 16.0363 140.374 16.1768 140.693 16.1976C141.013 16.2185 141.276 16.11 141.481 15.8722C141.686 15.6322 141.804 15.2859 141.833 14.8334C141.859 14.4286 141.784 14.0949 141.607 13.8322C141.433 13.5673 141.186 13.4245 140.868 13.4038C140.556 13.3834 140.297 13.491 140.09 13.7264C139.883 13.9617 139.764 14.3102 139.734 14.7718Z" fill="white"/>
<defs>
<linearGradient id="paint0_linear" x1="124.5" y1="0" x2="124.5" y2="34.5" gradientUnits="userSpaceOnUse">
<stop stop-color="#FF5722"/>
<stop offset="1" stop-color="#424242"/>
</linearGradient>
</defs>
</svg>
