<svg width="160" height="143" viewBox="0 0 160 143" fill="none" xmlns="http://www.w3.org/2000/svg">
<rect x="22" y="78" width="83" height="46" fill="#C4C4C4"/>
<path d="M158.5 58.5L132.5 99L69.5 132.5L29 124L12 92L96.5 32L105.5 21.5L145.5 11.5L149.5 21.5L145.5 32L135.5 55H152.5L158.5 58.5Z" fill="#C4C4C4"/>
<rect x="58" y="41" width="78" height="50" fill="#C4C4C4"/>
<path d="M144 55H146.5L147 56H134.5L130 57L126 54L120 51.5L119.5 49.5L120.5 47L122.5 45.5L119.5 42.5L122.5 42L124 38.5V34.5H127.5H133V31.5H135L134.5 29H140V26L143.5 25L144 19.5H151L153.5 22V40.5H150L149 38.5H145.5L143.5 41.5L140 47L142 52L144 55Z" fill="#FF5722"/>
<path d="M144 55H146.5L147 56H134.5L130 57L126 54L120 51.5L119.5 49.5L120.5 47L122.5 45.5L119.5 42.5L122.5 42L124 38.5V34.5H127.5H133V31.5H135L134.5 29H140V26L143.5 25L144 19.5H151L153.5 22V40.5H150L149 38.5H145.5L143.5 41.5L140 47L142 52L144 55Z" fill="url(#paint0_linear)"/>
<path d="M122 29L124 30.5V38.5L122.5 41.5L119.5 43L122.5 45.5L121 46.5L119.5 49.5V52L116.5 52.5L114 51H109L108.5 49.5L107 43L108.5 39L112 38.5L116.5 33.5V31L117 30.5L120 29H122Z" fill="#C4C4C4"/>
<path d="M149.5 18.5L151.5 19L144 19.5L143 25.5L140.5 26L139.5 29H134.5V31.5H132.5L132 34.5L123.5 34V30L120.5 29L115 31H108.5L97.5 27L102 22V17L104 15.5H105.5V12.5H108.5V11H110.5V9H112.5V7H115V3H122V0H133.5L134.5 1.5H145V5.5H148V11H149.5V18.5Z" fill="#C4C4C4"/>
<path d="M148 78.5L136 97.5H135H134.5L133.5 95.5H129.5V94H124.5L124 88L128 81V78.5L122.5 72L124 71L129.5 67L131.5 63.5L130.5 56.5L150.5 54L153 51.5H155H160V56.5V63.5L158 67L155 72L148 78.5Z" fill="#C4C4C4"/>
<path d="M125.5 69.5L123 71.5L119.5 70.5L116 71.5L113 74L105 82V85L108.5 91.5H106L101.5 94H87L77 84L82 73L86 61.5L95.5 59.5L98 57L101.5 51L105 52L108.5 51H110.5H113L116 52H119.5L125.5 53.5L128 55L130 58V61.5V65L128 68L125.5 69.5Z" fill="#C4C4C4"/>
<path d="M106.5 88L108 90.5H109V93.5H113.5L117 88H124L125 85.5L126.5 82L128.5 80.5V78.5L125 74.5L123 72.5L119.5 71L115.5 72L112 74.5L108 78.5L105 82V84.5L106.5 88Z" fill="#C4C4C4"/>
<path d="M63 32.5L62 36.5L63 42H66.5L67.5 48.5L72 51.5L73.5 56.5L75 59.5L78.5 62L81 65L82.5 70.5L84 66L85.5 62L89 61L95.5 59.5L98 57L99.5 54L101 51L105 52L108.5 51C108.667 50.5 108.9 49.3 108.5 48.5C108.1 47.7 107.667 45.5 107.5 44.5V41L109 39H112L114 35.5L116.5 33L116 31H110L105.5 30L99 28.5L95.5 26.5H91L90 30V34L89 37.5L87 39H82.5L76.5 37.5L71.5 35.5L69.5 33L67.5 32.5H63Z" fill="#C4C4C4"/>
<path d="M6 89L9.5 97.5H13.5V95L17 95.5V91.5H19L20.5 93.5L22.5 95.5V104.5H26V110H28.5V117.5L32 111.5H36V114H34.5V117.5H36V120H42V117.5H44.5V115.5H46.5V114H48.5V111.5H53.5V108L57 106.5L59.5 108H65.5V106.5H77L87 100V93.5L77 83.5L79.5 78L81.5 73V67L80.5 63.5L77 61.5L74 58L72.5 51.5L69.5 50.5L67 48V42H63.5L61 36.5L59.5 42L50.5 51.5H42L39.5 50.5V46.5L42 44.5V38L39.5 36.5L37.5 32.5L36 30.5L34.5 27.5V69H32L28.5 71L26 73H19H12.5L9.5 71L6 67L4.5 63.5H3L0.5 67L2 75V79L4.5 83.5L6 89Z" fill="#C4C4C4"/>
<path d="M76.5 133.5H69.5V127H61V124L64 123V119.5L67.5 118.5V114L72.5 112.5L76.5 110V106.5L83 101.5L88 101V94H101L106 91.5H109.5V93.5H113.5L117 87.5H124.5V93.5H130V95.5H133.5V97L136 98.5L102 130.5H91V133.5H82V136H76.5V133.5Z" fill="#C4C4C4"/>
<path d="M35.5 143H28.5L21 139.5V136H15.5L16 128L11.5 123V119.5H15.5V106.5H13.5V103H11.5V101H10V97H13.5V95.5H17V93.5V91.5H19V93.5H21V95.5H23V104.5H25V108.5V110.5H28.5V117L30 115.5L31.5 113.5V112H33.5H35.5V114H33.5V117L35.5 117.5V121H41.5V117.5H44.5V115.5H46.5V114L48.5 113.5L48 112L54 111.5V108.5H56V106.5H60V108.5H65.5V106.5H74.5V108.5V111.5H73V114H67.5V119.5H63V123H61.5V127H69V134H67.5V136H63V134H61.5H56V136H52.5V138V139.5H47.5H41.5H37.5V141.5H35.5V143Z" fill="#C4C4C4"/>
<path d="M119.754 48.1537L123.48 50.4468L122.368 46.2159L123.052 45.7091L126.016 49.707L125.489 50.0978L124.335 48.5409L123.138 46.8239L124.226 51.0341L123.822 51.3333L120.118 49.0752L121.41 50.7087L122.564 52.2656L122.037 52.6564L119.074 48.6585L119.754 48.1537ZM128.3 45.7631C128.635 46.2152 128.802 46.6561 128.8 47.0859C128.798 47.5156 128.62 47.8615 128.267 48.1234C127.906 48.3907 127.538 48.4866 127.161 48.4111L128.222 49.8417L127.714 50.2183L124.665 46.105L125.129 45.761L125.398 46.0722C125.415 45.6626 125.607 45.3214 125.975 45.0487C126.332 44.7841 126.713 44.7096 127.12 44.8254C127.528 44.9398 127.91 45.2368 128.265 45.7164L128.3 45.7631ZM127.749 46.082C127.501 45.747 127.233 45.5354 126.947 45.4472C126.66 45.359 126.392 45.4072 126.143 45.5917C125.836 45.8197 125.706 46.127 125.755 46.5138L126.807 47.9334C127.16 48.0916 127.493 48.0548 127.806 47.8227C128.049 47.6423 128.171 47.403 128.171 47.1049C128.172 46.8037 128.031 46.4627 127.749 46.082ZM131.641 45.0817C131.616 45.4608 131.412 45.7921 131.029 46.0757C130.712 46.3104 130.403 46.398 130.101 46.3385C129.799 46.2757 129.513 46.0647 129.244 45.7055L127.811 43.7724L128.319 43.3958L129.742 45.3152C130.076 45.7655 130.426 45.8549 130.792 45.5835C131.18 45.2959 131.331 44.9599 131.245 44.5757L129.643 42.4148L130.151 42.0382L132.353 45.0092L131.87 45.3674L131.641 45.0817ZM131.403 41.11L131.661 41.4293C131.689 41.0116 131.887 40.6657 132.257 40.3916C132.673 40.0835 133.074 40.0331 133.46 40.2404C133.453 40.0243 133.496 39.814 133.588 39.6094C133.682 39.4035 133.837 39.2205 134.053 39.0604C134.705 38.5773 135.292 38.6767 135.814 39.3587L137.29 41.3494L136.782 41.726L135.329 39.7655C135.171 39.5531 135.005 39.4307 134.831 39.3983C134.655 39.3641 134.453 39.4318 134.224 39.6014C134.036 39.7411 133.921 39.9139 133.881 40.1197C133.839 40.3236 133.879 40.5282 134 40.7335L135.461 42.705L134.951 43.0836L133.508 41.1368C133.187 40.7048 132.816 40.6456 132.393 40.959C132.06 41.206 131.937 41.5168 132.025 41.8914L133.633 44.0606L133.125 44.4372L130.922 41.4662L131.403 41.11ZM139.893 39.4198C139.82 39.3829 139.719 39.2962 139.59 39.1597C139.535 39.58 139.344 39.9117 139.017 40.1545C138.724 40.3717 138.422 40.4677 138.111 40.4428C137.801 40.4146 137.552 40.2733 137.363 40.0188C137.134 39.7095 137.073 39.3828 137.181 39.0389C137.29 38.6918 137.557 38.3601 137.984 38.044L138.478 37.6776L138.305 37.4442C138.174 37.2666 138.016 37.165 137.832 37.1394C137.648 37.1119 137.452 37.1749 137.245 37.3282C137.064 37.4625 136.946 37.6209 136.891 37.8034C136.836 37.9858 136.857 38.142 136.953 38.272L136.442 38.6506C136.333 38.5023 136.279 38.3208 136.281 38.1062C136.284 37.8884 136.346 37.6727 136.466 37.4592C136.587 37.2443 136.756 37.0568 136.972 36.8967C137.314 36.6429 137.646 36.5302 137.968 36.5584C138.288 36.5848 138.563 36.7454 138.793 37.0402L139.806 38.4076C140.009 38.6803 140.204 38.8715 140.393 38.981L140.426 39.0249L139.893 39.4198ZM138.763 39.6575C138.922 39.5395 139.043 39.3863 139.125 39.1981C139.206 39.0099 139.23 38.8261 139.197 38.6468L138.745 38.0373L138.347 38.3324C137.724 38.7938 137.548 39.2066 137.818 39.5709C137.936 39.7301 138.082 39.8153 138.254 39.8263C138.427 39.8372 138.597 39.781 138.763 39.6575ZM141.67 38.1029L141.162 38.4794L138.035 34.2619L138.543 33.8853L141.67 38.1029ZM144.319 36.1386C144.247 36.1018 144.145 36.0151 144.016 35.8785C143.962 36.2989 143.771 36.6305 143.443 36.8734C143.15 37.0905 142.848 37.1866 142.538 37.1616C142.227 37.1334 141.978 36.9921 141.789 36.7377C141.56 36.4283 141.499 36.1017 141.608 35.7577C141.716 35.4106 141.984 35.079 142.41 34.7628L142.904 34.3964L142.731 34.163C142.6 33.9855 142.442 33.8839 142.259 33.8582C142.074 33.8308 141.878 33.8937 141.671 34.047C141.49 34.1814 141.372 34.3398 141.317 34.5222C141.262 34.7047 141.283 34.8609 141.379 34.9908L140.869 35.3694C140.759 35.2211 140.705 35.0397 140.708 34.8251C140.711 34.6072 140.772 34.3916 140.892 34.178C141.013 33.9631 141.182 33.7756 141.398 33.6155C141.74 33.3618 142.072 33.249 142.394 33.2772C142.714 33.3036 142.989 33.4642 143.219 33.759L144.233 35.1264C144.435 35.3992 144.63 35.5903 144.819 35.6998L144.852 35.7438L144.319 36.1386ZM143.189 36.3764C143.349 36.2583 143.469 36.1052 143.551 35.917C143.633 35.7287 143.657 35.545 143.623 35.3657L143.171 34.7561L142.773 35.0513C142.151 35.5126 141.974 35.9255 142.244 36.2897C142.362 36.449 142.508 36.5341 142.68 36.5451C142.853 36.5561 143.023 36.4998 143.189 36.3764ZM143.822 31.9037L144.115 32.2649C144.131 31.811 144.321 31.4484 144.688 31.177C145.315 30.7116 145.895 30.8311 146.425 31.5354L147.881 33.4986L147.373 33.8752L145.915 31.9092C145.755 31.6964 145.588 31.5747 145.415 31.5441C145.244 31.5122 145.056 31.5715 144.853 31.7221C144.689 31.8442 144.577 31.9954 144.517 32.1755C144.458 32.3557 144.446 32.5429 144.483 32.7372L146.052 34.8543L145.544 35.2308L143.342 32.2599L143.822 31.9037ZM147.406 31.5101C147.063 31.047 146.897 30.5997 146.909 30.1682C146.92 29.7348 147.102 29.3872 147.455 29.1253C147.818 28.8566 148.196 28.7751 148.589 28.8808L148.369 28.5329L148.833 28.189L150.983 31.0885C151.268 31.4729 151.378 31.8607 151.313 32.2518C151.25 32.6416 151.027 32.9789 150.642 33.2639C150.428 33.4227 150.185 33.5323 149.912 33.5927C149.639 33.6532 149.389 33.6438 149.163 33.5646L149.201 33.0644C149.618 33.172 149.984 33.1091 150.299 32.8757C150.546 32.6925 150.687 32.4805 150.721 32.2396C150.757 31.9974 150.682 31.7499 150.494 31.4973L150.305 31.242C150.276 31.6269 150.085 31.9496 149.734 32.2102C149.386 32.468 149 32.5369 148.576 32.417C148.155 32.2957 147.765 31.9934 147.406 31.5101ZM147.96 31.1892C148.208 31.5242 148.472 31.7369 148.752 31.8273C149.03 31.9159 149.293 31.8686 149.54 31.6854C149.861 31.448 149.988 31.1281 149.922 30.7257L148.917 29.3693C148.551 29.2009 148.212 29.2321 147.901 29.4628C147.654 29.646 147.532 29.8852 147.536 30.1806C147.539 30.4759 147.68 30.8121 147.96 31.1892ZM153.639 29.2303C153.566 29.1934 153.465 29.1067 153.335 28.9702C153.281 29.3905 153.09 29.7222 152.762 29.9651C152.469 30.1822 152.168 30.2782 151.857 30.2533C151.547 30.2251 151.297 30.0838 151.109 29.8293C150.879 29.52 150.819 29.1933 150.927 28.8494C151.035 28.5023 151.303 28.1706 151.729 27.8545L152.224 27.4881L152.051 27.2547C151.919 27.0771 151.761 26.9755 151.578 26.9499C151.393 26.9224 151.197 26.9854 150.99 27.1387C150.809 27.273 150.691 27.4314 150.636 27.6139C150.582 27.7963 150.602 27.9525 150.699 28.0825L150.188 28.4611C150.078 28.3128 150.024 28.1314 150.027 27.9167C150.03 27.6989 150.091 27.4832 150.211 27.2697C150.333 27.0548 150.501 26.8673 150.717 26.7072C151.06 26.4534 151.392 26.3407 151.713 26.3689C152.033 26.3953 152.308 26.5559 152.538 26.8507L153.552 28.2181C153.754 28.4908 153.95 28.682 154.139 28.7915L154.171 28.8354L153.639 29.2303ZM152.509 29.468C152.668 29.35 152.788 29.1968 152.87 29.0086C152.952 28.8204 152.976 28.6366 152.942 28.4573L152.49 27.8478L152.092 28.1429C151.47 28.6043 151.294 29.0171 151.564 29.3814C151.682 29.5406 151.827 29.6258 152 29.6368C152.172 29.6478 152.342 29.5915 152.509 29.468Z" fill="white"/>
<defs>
<linearGradient id="paint0_linear" x1="136.5" y1="19.5" x2="136.5" y2="57" gradientUnits="userSpaceOnUse">
<stop stop-color="#FF5722"/>
<stop offset="1" stop-color="#424242"/>
</linearGradient>
</defs>
</svg>
