<svg width="160" height="143" viewBox="0 0 160 143" fill="none" xmlns="http://www.w3.org/2000/svg">
<rect x="22" y="78" width="83" height="46" fill="#C4C4C4"/>
<path d="M158.5 58.5L132.5 99L69.5 132.5L29 124L12 92L96.5 32L105.5 21.5L145.5 11.5L149.5 21.5L145.5 32L135.5 55H152.5L158.5 58.5Z" fill="#C4C4C4"/>
<rect x="58" y="41" width="78" height="50" fill="#C4C4C4"/>
<path d="M144 55H146.5L147 56H134.5L130 57L126 54L120 51.5L119.5 49.5L120.5 47L122.5 45.5L119.5 42.5L122.5 42L124 38.5V34.5H127.5H133V31.5H135L134.5 29H140V26L143.5 25L144 19.5H151L153.5 22V40.5H150L149 38.5H145.5L143.5 41.5L140 47L142 52L144 55Z" fill="#C4C4C4"/>
<path d="M122 29L124 30.5V38.5L122.5 41.5L119.5 43L122.5 45.5L121 46.5L119.5 49.5V52L116.5 52.5L114 51H109L108.5 49.5L107 43L108.5 39L112 38.5L116.5 33.5V31L117 30.5L120 29H122Z" fill="#C4C4C4"/>
<path d="M149.5 18.5L151.5 19L144 19.5L143 25.5L140.5 26L139.5 29H134.5V31.5H132.5L132 34.5L123.5 34V30L120.5 29L115 31H108.5L97.5 27L102 22V17L104 15.5H105.5V12.5H108.5V11H110.5V9H112.5V7H115V3H122V0H133.5L134.5 1.5H145V5.5H148V11H149.5V18.5Z" fill="#C4C4C4"/>
<path d="M148 78.5L136 97.5H135H134.5L133.5 95.5H129.5V94H124.5L124 88L128 81V78.5L122.5 72L124 71L129.5 67L131.5 63.5L130.5 56.5L153.5 57L153 51.5H155H160V56.5V63.5L158 67L155 72L148 78.5Z" fill="#C4C4C4"/>
<path d="M125.5 69.5L123 71.5L119.5 70.5L116 71.5L113 74L105 82V85L108.5 91.5H106L101.5 94H87L77 84L82 73L86 61.5L95.5 59.5L98 57L101.5 51L105 52L108.5 51H110.5H113L116 52H119.5L125.5 53.5L128 55L130 58V61.5V65L128 68L125.5 69.5Z" fill="#C4C4C4"/>
<path d="M106.5 88L108 90.5H109V93.5H113.5L117 88H124L125 85.5L126.5 82L128.5 80.5V78.5L125 74.5L123 72.5L119.5 71L115.5 72L112 74.5L108 78.5L105 82V84.5L106.5 88Z" fill="#C4C4C4"/>
<path d="M63 32.5L62 36.5L63 42H66.5L67.5 48.5L72 51.5L73.5 56.5L75 59.5L78.5 62L81 65L82.5 70.5L84 66L85.5 62L89 61L95.5 59.5L98 57L99.5 54L101 51L105 52L108.5 51C108.667 50.5 108.9 49.3 108.5 48.5C108.1 47.7 107.667 45.5 107.5 44.5V41L109 39H112L114 35.5L116.5 33L116 31H110L105.5 30L99 28.5L95.5 26.5H91L90 30V34L89 37.5L87 39H82.5L76.5 37.5L71.5 35.5L69.5 33L67.5 32.5H63Z" fill="#C4C4C4"/>
<path d="M6 89L9.5 97.5H13.5V95L17 95.5V91.5H19L20.5 93.5L22.5 95.5V104.5H26V110H28.5V117.5L32 111.5H36V114H34.5V117.5H36V120H42V117.5H44.5V115.5H46.5V114H48.5V111.5H53.5V108L57 106.5L59.5 108H65.5V106.5H77L87 100V93.5L77 83.5L79.5 78L81.5 73V67L80.5 63.5L77 61.5L74 58L72.5 51.5L69.5 50.5L67 48V42H63.5L61 36.5L59.5 42L50.5 51.5H42L39.5 50.5V46.5L42 44.5V38L39.5 36.5L37.5 32.5L36 30.5L34.5 27.5V69H32L28.5 71L26 73H19H12.5L9.5 71L6 67L4.5 63.5H3L0.5 67L2 75V79L4.5 83.5L6 89Z" fill="#C4C4C4"/>
<path d="M76.5 133.5H69.5V127H61V124L64 123V119.5L67.5 118.5V114L72.5 112.5L76.5 110V106.5L83 101.5L88 101V94H101L106 91.5H109.5V93.5H113.5L117 87.5H124.5V93.5H130V95.5H133.5V97L136 98.5L102 130.5H91V133.5H82V136H76.5V133.5Z" fill="#C4C4C4"/>
<path d="M35.5 143H28.5L21 139.5V136H15.5L16 128L11.5 123V119.5H15.5V106.5H13.5V103H11.5V101H10V97H13.5V95.5H17V93.5V91.5H19V93.5H21V95.5H23V104.5H25V108.5V110.5H28.5V117L30 115.5L31.5 113.5V112H33.5H35.5V114H33.5V117L35.5 117.5V121H41.5V117.5H44.5V115.5H46.5V114L48.5 113.5L48 112L54 111.5V108.5H56V106.5H60V108.5H65.5V106.5H74.5V108.5V111.5H73V114H67.5V119.5H63V123H61.5V127H69V134H67.5V136H63V134H61.5H56V136H52.5V138V139.5H47.5H41.5H37.5V141.5H35.5V143Z" fill="#FF5722"/>
<path d="M35.5 143H28.5L21 139.5V136H15.5L16 128L11.5 123V119.5H15.5V106.5H13.5V103H11.5V101H10V97H13.5V95.5H17V93.5V91.5H19V93.5H21V95.5H23V104.5H25V108.5V110.5H28.5V117L30 115.5L31.5 113.5V112H33.5H35.5V114H33.5V117L35.5 117.5V121H41.5V117.5H44.5V115.5H46.5V114L48.5 113.5L48 112L54 111.5V108.5H56V106.5H60V108.5H65.5V106.5H74.5V108.5V111.5H73V114H67.5V119.5H63V123H61.5V127H69V134H67.5V136H63V134H61.5H56V136H52.5V138V139.5H47.5H41.5H37.5V141.5H35.5V143Z" fill="url(#paint0_linear)"/>
<path d="M25.6509 126.431L25.7466 127.087L25.8867 126.496L26.8711 123.023H27.4248L28.3853 126.496L28.522 127.098L28.6279 126.428L29.4004 123.023H30.0601L28.8535 128H28.2554L27.23 124.374L27.1514 123.994L27.0728 124.374L26.0098 128H25.4116L24.2085 123.023H24.8647L25.6509 126.431ZM32.1177 128.068C31.6164 128.068 31.2085 127.904 30.894 127.576C30.5796 127.246 30.4224 126.805 30.4224 126.253V126.137C30.4224 125.77 30.4919 125.443 30.6309 125.156C30.7721 124.867 30.9681 124.641 31.2188 124.479C31.4717 124.315 31.7451 124.233 32.0391 124.233C32.5199 124.233 32.8936 124.392 33.1602 124.708C33.4268 125.025 33.5601 125.479 33.5601 126.069V126.332H31.0547C31.0638 126.697 31.1698 126.992 31.3726 127.217C31.5776 127.441 31.8374 127.552 32.1519 127.552C32.3752 127.552 32.5643 127.507 32.7192 127.416C32.8742 127.324 33.0098 127.204 33.126 127.053L33.5122 127.354C33.2023 127.83 32.7375 128.068 32.1177 128.068ZM32.0391 124.753C31.7839 124.753 31.5697 124.846 31.3965 125.033C31.2233 125.218 31.1162 125.478 31.0752 125.812H32.9277V125.765C32.9095 125.443 32.8229 125.195 32.668 125.02C32.513 124.842 32.3034 124.753 32.0391 124.753ZM36.4482 127.019C36.4482 126.848 36.3833 126.716 36.2534 126.623C36.1258 126.527 35.9014 126.445 35.5801 126.376C35.2611 126.308 35.007 126.226 34.8179 126.13C34.631 126.035 34.492 125.921 34.4009 125.789C34.312 125.656 34.2676 125.499 34.2676 125.317C34.2676 125.014 34.3952 124.757 34.6504 124.548C34.9079 124.338 35.236 124.233 35.6348 124.233C36.054 124.233 36.3936 124.342 36.6533 124.558C36.9154 124.775 37.0464 125.051 37.0464 125.389H36.4106C36.4106 125.215 36.3366 125.066 36.1885 124.941C36.0426 124.816 35.8581 124.753 35.6348 124.753C35.4046 124.753 35.2246 124.803 35.0947 124.903C34.9648 125.004 34.8999 125.135 34.8999 125.296C34.8999 125.449 34.9603 125.564 35.0811 125.642C35.2018 125.719 35.4194 125.793 35.7339 125.864C36.0506 125.934 36.307 126.019 36.5029 126.117C36.6989 126.215 36.8436 126.333 36.937 126.472C37.0327 126.609 37.0806 126.776 37.0806 126.975C37.0806 127.305 36.9484 127.57 36.6841 127.771C36.4198 127.969 36.0768 128.068 35.6553 128.068C35.359 128.068 35.097 128.016 34.8691 127.911C34.6413 127.806 34.4624 127.66 34.3325 127.474C34.2049 127.285 34.1411 127.081 34.1411 126.862H34.7734C34.7848 127.074 34.8691 127.242 35.0264 127.368C35.1859 127.491 35.3955 127.552 35.6553 127.552C35.8945 127.552 36.0859 127.504 36.2295 127.409C36.3753 127.311 36.4482 127.181 36.4482 127.019ZM38.7622 123.406V124.302H39.4526V124.791H38.7622V127.084C38.7622 127.232 38.793 127.344 38.8545 127.419C38.916 127.492 39.0208 127.528 39.1689 127.528C39.2419 127.528 39.3421 127.515 39.4697 127.487V128C39.3034 128.046 39.1416 128.068 38.9844 128.068C38.7018 128.068 38.4888 127.983 38.3452 127.812C38.2017 127.641 38.1299 127.398 38.1299 127.084V124.791H37.4565V124.302H38.1299V123.406H38.7622ZM41.729 128.068C41.2277 128.068 40.8198 127.904 40.5054 127.576C40.1909 127.246 40.0337 126.805 40.0337 126.253V126.137C40.0337 125.77 40.1032 125.443 40.2422 125.156C40.3835 124.867 40.5794 124.641 40.8301 124.479C41.083 124.315 41.3564 124.233 41.6504 124.233C42.1312 124.233 42.5049 124.392 42.7715 124.708C43.0381 125.025 43.1714 125.479 43.1714 126.069V126.332H40.666C40.6751 126.697 40.7811 126.992 40.9839 127.217C41.189 127.441 41.4487 127.552 41.7632 127.552C41.9865 127.552 42.1756 127.507 42.3306 127.416C42.4855 127.324 42.6211 127.204 42.7373 127.053L43.1235 127.354C42.8136 127.83 42.3488 128.068 41.729 128.068ZM41.6504 124.753C41.3952 124.753 41.181 124.846 41.0078 125.033C40.8346 125.218 40.7275 125.478 40.6865 125.812H42.5391V125.765C42.5208 125.443 42.4342 125.195 42.2793 125.02C42.1243 124.842 41.9147 124.753 41.6504 124.753ZM45.6938 124.869C45.5981 124.853 45.4945 124.845 45.3828 124.845C44.9681 124.845 44.6867 125.022 44.5386 125.375V128H43.9062V124.302H44.5215L44.5317 124.729C44.7391 124.399 45.033 124.233 45.4136 124.233C45.5366 124.233 45.63 124.249 45.6938 124.281V124.869ZM46.8765 124.302L46.897 124.767C47.1795 124.411 47.5487 124.233 48.0044 124.233C48.786 124.233 49.1802 124.674 49.187 125.556V128H48.5547V125.553C48.5524 125.286 48.4909 125.089 48.3701 124.961C48.2516 124.834 48.0659 124.77 47.813 124.77C47.6079 124.77 47.4279 124.825 47.2729 124.934C47.118 125.043 46.9972 125.187 46.9106 125.365V128H46.2783V124.302H46.8765ZM28.2383 134.421C28.1768 134.947 27.9819 135.354 27.6538 135.641C27.328 135.926 26.8939 136.068 26.3516 136.068C25.7637 136.068 25.292 135.858 24.9365 135.436C24.5833 135.014 24.4067 134.451 24.4067 133.744V133.266C24.4067 132.803 24.4888 132.396 24.6528 132.045C24.8192 131.694 25.0539 131.426 25.3569 131.239C25.66 131.05 26.0109 130.955 26.4097 130.955C26.9383 130.955 27.3621 131.103 27.6812 131.399C28.0002 131.693 28.1859 132.101 28.2383 132.623H27.5786C27.5216 132.227 27.3975 131.939 27.2061 131.762C27.0169 131.584 26.7515 131.495 26.4097 131.495C25.9904 131.495 25.6611 131.65 25.4219 131.96C25.1849 132.27 25.0664 132.711 25.0664 133.283V133.765C25.0664 134.305 25.1792 134.734 25.4048 135.053C25.6304 135.372 25.946 135.532 26.3516 135.532C26.7161 135.532 26.9953 135.45 27.189 135.286C27.3849 135.119 27.5148 134.831 27.5786 134.421H28.2383ZM31.3213 136C31.2848 135.927 31.2552 135.797 31.2324 135.61C30.9385 135.916 30.5876 136.068 30.1797 136.068C29.8151 136.068 29.5155 135.966 29.2808 135.761C29.0483 135.553 28.9321 135.291 28.9321 134.975C28.9321 134.59 29.078 134.291 29.3696 134.079C29.6636 133.865 30.076 133.758 30.6069 133.758H31.2222V133.467C31.2222 133.246 31.1561 133.071 31.0239 132.941C30.8918 132.809 30.6969 132.743 30.4395 132.743C30.2139 132.743 30.0247 132.8 29.8721 132.914C29.7194 133.028 29.6431 133.165 29.6431 133.327H29.0073C29.0073 133.143 29.0723 132.965 29.2021 132.794C29.3343 132.621 29.512 132.484 29.7354 132.384C29.9609 132.284 30.2082 132.233 30.4771 132.233C30.9032 132.233 31.237 132.34 31.4785 132.555C31.7201 132.767 31.8454 133.059 31.8545 133.433V135.135C31.8545 135.475 31.8978 135.745 31.9844 135.945V136H31.3213ZM30.272 135.518C30.4702 135.518 30.6582 135.467 30.8359 135.364C31.0137 135.262 31.1424 135.128 31.2222 134.964V134.206H30.7266C29.9518 134.206 29.5645 134.432 29.5645 134.886C29.5645 135.084 29.6305 135.239 29.7627 135.351C29.8949 135.462 30.0646 135.518 30.272 135.518ZM35.9697 134.192C35.9697 134.755 35.841 135.208 35.5835 135.552C35.326 135.896 34.9774 136.068 34.5376 136.068C34.0887 136.068 33.7355 135.926 33.478 135.641V137.422H32.8457V132.302H33.4233L33.4541 132.712C33.7116 132.393 34.0693 132.233 34.5273 132.233C34.9717 132.233 35.3226 132.401 35.5801 132.736C35.8398 133.071 35.9697 133.537 35.9697 134.134V134.192ZM35.3374 134.12C35.3374 133.703 35.2485 133.374 35.0708 133.132C34.8931 132.891 34.6493 132.77 34.3394 132.77C33.9565 132.77 33.6694 132.94 33.478 133.279V135.046C33.6672 135.384 33.9565 135.552 34.3462 135.552C34.6493 135.552 34.8896 135.433 35.0674 135.193C35.2474 134.952 35.3374 134.594 35.3374 134.12ZM38.311 136.068C37.8097 136.068 37.4019 135.904 37.0874 135.576C36.7729 135.246 36.6157 134.805 36.6157 134.253V134.137C36.6157 133.77 36.6852 133.443 36.8242 133.156C36.9655 132.867 37.1615 132.641 37.4121 132.479C37.665 132.315 37.9385 132.233 38.2324 132.233C38.7132 132.233 39.0869 132.392 39.3535 132.708C39.6201 133.025 39.7534 133.479 39.7534 134.069V134.332H37.248C37.2572 134.697 37.3631 134.992 37.5659 135.217C37.771 135.441 38.0308 135.552 38.3452 135.552C38.5685 135.552 38.7576 135.507 38.9126 135.416C39.0675 135.324 39.2031 135.204 39.3193 135.053L39.7056 135.354C39.3957 135.83 38.9308 136.068 38.311 136.068ZM38.2324 132.753C37.9772 132.753 37.763 132.846 37.5898 133.033C37.4167 133.218 37.3096 133.478 37.2686 133.812H39.1211V133.765C39.1029 133.443 39.0163 133.195 38.8613 133.02C38.7064 132.842 38.4967 132.753 38.2324 132.753Z" fill="white"/>
<defs>
<linearGradient id="paint0_linear" x1="42.25" y1="91.5" x2="42.25" y2="143" gradientUnits="userSpaceOnUse">
<stop stop-color="#FF5722"/>
<stop offset="1" stop-color="#424242"/>
</linearGradient>
</defs>
</svg>
