<svg width="160" height="143" viewBox="0 0 160 143" fill="none" xmlns="http://www.w3.org/2000/svg">
<rect x="22" y="78" width="83" height="46" fill="#C4C4C4"/>
<path d="M158.5 58.5L132.5 99L69.5 132.5L29 124L12 92L96.5 32L105.5 21.5L145.5 11.5L149.5 21.5L145.5 32L135.5 55H152.5L158.5 58.5Z" fill="#C4C4C4"/>
<rect x="58" y="41" width="78" height="50" fill="#C4C4C4"/>
<path d="M144 55H146.5L147 56H134.5L130 57L126 54L120 51.5L119.5 49.5L120.5 47L122.5 45.5L119.5 42.5L122.5 42L124 38.5V34.5H127.5H133V31.5H135L134.5 29H140V26L143.5 25L144 19.5H151L153.5 22V40.5H150L149 38.5H145.5L143.5 41.5L140 47L142 52L144 55Z" fill="#C4C4C4"/>
<path d="M122 29L124 30.5V38.5L122.5 41.5L119.5 43L122.5 45.5L121 46.5L119.5 49.5V52L116.5 52.5L114 51H109L108.5 49.5L107 43L108.5 39L112 38.5L116.5 33.5V31L117 30.5L120 29H122Z" fill="#FF5722"/>
<path d="M122 29L124 30.5V38.5L122.5 41.5L119.5 43L122.5 45.5L121 46.5L119.5 49.5V52L116.5 52.5L114 51H109L108.5 49.5L107 43L108.5 39L112 38.5L116.5 33.5V31L117 30.5L120 29H122Z" fill="url(#paint0_linear)"/>
<path d="M149.5 18.5L151.5 19L144 19.5L143 25.5L140.5 26L139.5 29H134.5V31.5H132.5L132 34.5L123.5 34V30L120.5 29L115 31H108.5L97.5 27L102 22V17L104 15.5H105.5V12.5H108.5V11H110.5V9H112.5V7H115V3H122V0H133.5L134.5 1.5H145V5.5H148V11H149.5V18.5Z" fill="#C4C4C4"/>
<path d="M148 78.5L136 97.5H135H134.5L133.5 95.5H129.5V94H124.5L124 88L128 81V78.5L122.5 72L124 71L129.5 67L131.5 63.5L130.5 56.5L150.5 54L153 51.5H155H160V56.5V63.5L158 67L155 72L148 78.5Z" fill="#C4C4C4"/>
<path d="M125.5 69.5L123 71.5L119.5 70.5L116 71.5L113 74L105 82V85L108.5 91.5H106L101.5 94H87L77 84L82 73L86 61.5L95.5 59.5L98 57L101.5 51L105 52L108.5 51H110.5H113L116 52H119.5L125.5 53.5L128 55L130 58V61.5V65L128 68L125.5 69.5Z" fill="#C4C4C4"/>
<path d="M106.5 88L108 90.5H109V93.5H113.5L117 88H124L125 85.5L126.5 82L128.5 80.5V78.5L125 74.5L123 72.5L119.5 71L115.5 72L112 74.5L108 78.5L105 82V84.5L106.5 88Z" fill="#C4C4C4"/>
<path d="M63 32.5L62 36.5L63 42H66.5L67.5 48.5L72 51.5L73.5 56.5L75 59.5L78.5 62L81 65L82.5 70.5L84 66L85.5 62L89 61L95.5 59.5L98 57L99.5 54L101 51L105 52L108.5 51C108.667 50.5 108.9 49.3 108.5 48.5C108.1 47.7 107.667 45.5 107.5 44.5V41L109 39H112L114 35.5L116.5 33L116 31H110L105.5 30L99 28.5L95.5 26.5H91L90 30V34L89 37.5L87 39H82.5L76.5 37.5L71.5 35.5L69.5 33L67.5 32.5H63Z" fill="#C4C4C4"/>
<path d="M6 89L9.5 97.5H13.5V95L17 95.5V91.5H19L20.5 93.5L22.5 95.5V104.5H26V110H28.5V117.5L32 111.5H36V114H34.5V117.5H36V120H42V117.5H44.5V115.5H46.5V114H48.5V111.5H53.5V108L57 106.5L59.5 108H65.5V106.5H77L87 100V93.5L77 83.5L79.5 78L81.5 73V67L80.5 63.5L77 61.5L74 58L72.5 51.5L69.5 50.5L67 48V42H63.5L61 36.5L59.5 42L50.5 51.5H42L39.5 50.5V46.5L42 44.5V38L39.5 36.5L37.5 32.5L36 30.5L34.5 27.5V69H32L28.5 71L26 73H19H12.5L9.5 71L6 67L4.5 63.5H3L0.5 67L2 75V79L4.5 83.5L6 89Z" fill="#C4C4C4"/>
<path d="M76.5 133.5H69.5V127H61V124L64 123V119.5L67.5 118.5V114L72.5 112.5L76.5 110V106.5L83 101.5L88 101V94H101L106 91.5H109.5V93.5H113.5L117 87.5H124.5V93.5H130V95.5H133.5V97L136 98.5L102 130.5H91V133.5H82V136H76.5V133.5Z" fill="#C4C4C4"/>
<path d="M35.5 143H28.5L21 139.5V136H15.5L16 128L11.5 123V119.5H15.5V106.5H13.5V103H11.5V101H10V97H13.5V95.5H17V93.5V91.5H19V93.5H21V95.5H23V104.5H25V108.5V110.5H28.5V117L30 115.5L31.5 113.5V112H33.5H35.5V114H33.5V117L35.5 117.5V121H41.5V117.5H44.5V115.5H46.5V114L48.5 113.5L48 112L54 111.5V108.5H56V106.5H60V108.5H65.5V106.5H74.5V108.5V111.5H73V114H67.5V119.5H63V123H61.5V127H69V134H67.5V136H63V134H61.5H56V136H52.5V138V139.5H47.5H41.5H37.5V141.5H35.5V143Z" fill="#C4C4C4"/>
<path d="M112.441 46.46C112.502 46.6613 112.499 46.8737 112.433 47.0972C112.367 47.3183 112.245 47.5414 112.068 47.7665C111.888 47.9941 111.676 48.1543 111.431 48.2472C111.185 48.339 110.925 48.356 110.651 48.2981C110.379 48.2389 110.112 48.1084 109.85 47.9065L109.607 47.7147C109.186 47.3833 108.937 47.0287 108.86 46.6508C108.783 46.2716 108.885 45.9043 109.165 45.5488C109.395 45.2573 109.654 45.0816 109.944 45.0217C110.232 44.9608 110.529 45.0182 110.834 45.1941L110.544 45.5624C110.12 45.3404 109.762 45.4148 109.47 45.7856C109.275 46.0324 109.215 46.2882 109.288 46.553C109.361 46.8155 109.561 47.0768 109.889 47.3369L110.117 47.5167C110.43 47.7634 110.736 47.8882 111.034 47.891C111.331 47.8928 111.576 47.7716 111.768 47.5274C111.877 47.3893 111.957 47.2564 112.007 47.1286C112.058 47.0009 112.074 46.8744 112.054 46.7493L111.427 46.2553L110.918 46.9017L110.619 46.666L111.417 45.6533L112.441 46.46ZM114.257 44.9072C114.2 44.8955 114.114 44.8547 113.999 44.7849C114.041 45.0848 113.971 45.3492 113.791 45.578C113.63 45.7826 113.44 45.9055 113.221 45.9465C113.002 45.9853 112.804 45.9347 112.626 45.7947C112.41 45.6245 112.307 45.4108 112.317 45.1535C112.327 44.8938 112.449 44.6151 112.683 44.3171L112.955 43.9719L112.792 43.8435C112.668 43.7458 112.541 43.7054 112.409 43.7221C112.277 43.7379 112.154 43.818 112.04 43.9625C111.94 44.0891 111.888 44.2204 111.885 44.3564C111.881 44.4924 111.925 44.5962 112.016 44.6677L111.735 45.0244C111.631 44.9429 111.56 44.8279 111.522 44.6795C111.483 44.5288 111.485 44.3686 111.527 44.199C111.571 44.0281 111.652 43.8672 111.771 43.7163C111.959 43.4772 112.167 43.3372 112.393 43.2963C112.619 43.2545 112.839 43.3135 113.053 43.4736L114.008 44.2258C114.198 44.3759 114.369 44.4709 114.52 44.511L114.55 44.5351L114.257 44.9072ZM113.523 45.2831C113.611 45.1718 113.665 45.0437 113.686 44.8986C113.707 44.7536 113.689 44.6224 113.632 44.5051L113.207 44.1698L112.988 44.4479C112.645 44.8826 112.601 45.2002 112.856 45.4006C112.967 45.4882 113.083 45.5196 113.204 45.4948C113.325 45.47 113.431 45.3994 113.523 45.2831ZM115.735 42.609C115.788 42.875 115.71 43.1416 115.5 43.4088C115.325 43.63 115.129 43.7484 114.909 43.7641C114.689 43.7775 114.453 43.6856 114.2 43.4885L112.85 42.425L113.129 42.0702L114.47 43.1261C114.784 43.3738 115.042 43.3698 115.244 43.1141C115.457 42.843 115.498 42.5832 115.367 42.3346L113.857 41.1457L114.137 40.7909L116.212 42.4254L115.946 42.7629L115.735 42.609ZM114.439 39.3729L114.942 39.7686L115.247 39.3812L115.521 39.5972L115.216 39.9847L116.503 40.9982C116.586 41.0637 116.662 41.0958 116.732 41.0945C116.8 41.0922 116.867 41.0495 116.932 40.9664C116.964 40.9255 117.001 40.8632 117.042 40.7795L117.33 41.0061C117.282 41.1195 117.223 41.2204 117.154 41.3086C117.029 41.4672 116.887 41.549 116.727 41.554C116.568 41.559 116.4 41.492 116.224 41.3531L114.937 40.3395L114.639 40.7173L114.365 40.5013L114.662 40.1235L114.16 39.7277L114.439 39.3729ZM118.367 39.7685C118.145 40.0498 117.873 40.2062 117.55 40.2376C117.225 40.268 116.908 40.1614 116.599 39.9177L116.534 39.8663C116.328 39.7042 116.175 39.5207 116.075 39.3158C115.975 39.1086 115.936 38.899 115.956 38.6868C115.975 38.4724 116.05 38.2827 116.18 38.1177C116.392 37.8479 116.646 37.7082 116.942 37.6986C117.238 37.689 117.551 37.8146 117.882 38.0754L118.03 38.1917L116.923 39.5976C117.131 39.7536 117.344 39.8246 117.56 39.8105C117.776 39.7941 117.953 39.6977 118.092 39.5212C118.191 39.3959 118.249 39.2696 118.266 39.1424C118.284 39.0152 118.276 38.8857 118.243 38.754L118.582 38.6702C118.712 39.0546 118.641 39.4207 118.367 39.7685ZM116.471 38.3473C116.359 38.4906 116.316 38.652 116.345 38.8318C116.372 39.0105 116.47 39.1854 116.64 39.3565L117.459 38.3169L117.432 38.2958C117.244 38.164 117.066 38.1029 116.899 38.1123C116.731 38.1207 116.588 38.199 116.471 38.3473ZM117.48 36.5464L117.75 36.7404C117.675 36.4247 117.738 36.139 117.94 35.8833C118.285 35.4447 118.707 35.4184 119.205 35.8043L120.576 36.8843L120.297 37.2391L118.923 36.1576C118.773 36.041 118.635 35.9884 118.51 35.9998C118.386 36.0099 118.268 36.0859 118.156 36.2279C118.066 36.3429 118.017 36.4681 118.01 36.6034C118.003 36.7387 118.03 36.8699 118.091 36.997L119.57 38.1617L119.291 38.5165L117.215 36.8821L117.48 36.5464ZM119.876 35.6028C119.553 35.348 119.355 35.0708 119.282 34.7711C119.208 34.4705 119.268 34.1968 119.462 33.95C119.662 33.6968 119.907 33.5697 120.198 33.5688L119.981 33.3703L120.236 33.0461L122.262 34.6413C122.53 34.8528 122.679 35.0994 122.708 35.381C122.738 35.6614 122.647 35.9359 122.435 36.2044C122.318 36.354 122.17 36.4753 121.994 36.5681C121.817 36.661 121.643 36.7013 121.472 36.6891L121.405 36.3373C121.712 36.3332 121.953 36.2212 122.126 36.0013C122.262 35.8286 122.319 35.6561 122.298 35.4837C122.277 35.31 122.178 35.1536 122.002 35.0146L121.824 34.8742C121.875 35.145 121.805 35.4032 121.611 35.6487C121.42 35.8916 121.167 36.0115 120.853 36.0083C120.539 36.0038 120.214 35.8686 119.876 35.6028ZM120.197 35.2778C120.431 35.462 120.653 35.5591 120.863 35.569C121.072 35.5778 121.244 35.4959 121.38 35.3233C121.556 35.0995 121.584 34.8551 121.463 34.5902L120.516 33.844C120.232 33.7966 120.004 33.8815 119.833 34.0989C119.697 34.2715 119.658 34.4593 119.716 34.6622C119.773 34.8651 119.934 35.0703 120.197 35.2778Z" fill="white"/>
<defs>
<linearGradient id="paint0_linear" x1="115.5" y1="29" x2="115.5" y2="52.5" gradientUnits="userSpaceOnUse">
<stop stop-color="#FF5722"/>
<stop offset="1" stop-color="#424242"/>
</linearGradient>
</defs>
</svg>
